<?xml version="1.0" standalone="no"?>
<!DOCTYPE svg PUBLIC "-//W3C//DTD SVG 20010904//EN"
 "http://www.w3.org/TR/2001/REC-SVG-20010904/DTD/svg10.dtd">
<svg version="1.0" xmlns="http://www.w3.org/2000/svg"
 width="1024.000000pt" height="1024.000000pt" viewBox="0 0 1024.000000 1024.000000"
 preserveAspectRatio="xMidYMid meet">

<g transform="translate(0.000000,1024.000000) scale(0.100000,-0.100000)"
fill="#000000" stroke="none">
<path d="M2082 9193 c-19 -9 -35 -26 -39 -41 -3 -14 -3 -160 0 -324 6 -278 8
-300 29 -345 22 -50 68 -99 104 -113 11 -5 108 -11 215 -15 191 -6 314 -18
354 -34 103 -43 225 -112 269 -152 70 -64 216 -310 216 -364 0 -7 4 -16 9 -19
5 -3 11 -18 14 -33 28 -142 37 -192 37 -213 0 -40 53 -96 97 -105 21 -4 354
-4 741 1 589 6 706 9 718 21 11 11 14 52 14 200 0 237 14 303 78 374 63 70 98
84 207 83 50 0 133 -5 185 -10 123 -13 202 -2 249 33 82 62 101 98 101 188 0
64 -4 79 -44 157 -71 137 -172 274 -301 407 -166 171 -280 253 -395 283 -141
37 -161 38 -1510 38 -1188 0 -1318 -2 -1348 -17z"/>
<path d="M1111 9119 c-18 -20 -20 -40 -23 -347 -2 -180 0 -335 5 -344 7 -17
31 -18 300 -18 226 0 297 3 311 13 17 12 18 34 13 333 -2 175 -8 329 -11 340
-14 40 -44 44 -316 44 -250 0 -260 -1 -279 -21z"/>
<path d="M2421 8005 c-47 -17 -99 -68 -122 -122 -15 -36 -19 -69 -19 -175 0
-127 -15 -253 -32 -272 -4 -6 -8 -18 -8 -28 0 -10 -4 -26 -9 -36 -5 -9 -21
-49 -36 -89 -38 -103 -154 -300 -239 -406 -93 -117 -163 -182 -350 -322 -83
-62 -160 -123 -170 -136 -25 -29 -32 -100 -15 -141 45 -112 173 -117 377 -14
48 24 103 53 122 65 19 11 42 24 50 28 44 21 258 233 321 318 241 329 379 683
381 984 2 161 -48 298 -122 340 -42 23 -77 25 -129 6z"/>
<path d="M3365 6910 c-22 -11 -58 -41 -81 -65 -35 -37 -42 -53 -52 -114 -7
-38 -12 -109 -12 -156 0 -78 -2 -87 -20 -92 -11 -3 -20 -8 -20 -12 0 -3 -13
-12 -30 -19 -40 -18 -41 -19 -101 -437 -15 -105 -26 -186 -48 -335 -11 -74
-27 -193 -36 -265 -22 -185 -54 -390 -64 -417 -15 -38 -67 -87 -192 -180 -180
-133 -265 -215 -413 -398 -264 -328 -415 -572 -564 -910 -45 -103 -113 -301
-153 -445 -6 -22 -15 -50 -20 -63 -5 -13 -9 -34 -9 -48 0 -13 -4 -32 -9 -42
-5 -9 -14 -53 -21 -97 -6 -44 -18 -123 -26 -175 -25 -154 -30 -658 -10 -850
21 -193 53 -382 74 -435 65 -166 217 -282 428 -326 97 -20 115 -20 819 -14
1677 15 2013 22 2040 39 37 24 52 62 60 154 4 45 11 85 16 88 5 3 9 14 9 25 0
10 4 27 9 37 9 16 31 96 52 187 65 288 64 580 -2 779 -90 269 -92 287 -93 731
-1 389 2 449 40 700 57 385 117 641 201 860 89 233 93 245 93 330 0 52 -11
130 -30 220 -17 77 -35 167 -41 200 -12 69 -17 94 -52 260 -14 66 -51 242 -82
390 -60 289 -72 347 -86 410 -5 22 -13 65 -19 95 -5 30 -25 122 -44 204 -27
119 -38 152 -56 166 -24 18 -98 21 -1045 36 -365 6 -371 5 -410 -16z m923
-467 l181 -6 10 -26 c5 -14 17 -66 26 -116 21 -115 30 -163 50 -250 9 -38 20
-95 25 -125 10 -55 22 -112 39 -192 11 -48 32 -152 55 -273 9 -44 23 -111 31
-150 8 -38 19 -92 24 -120 5 -27 26 -123 46 -213 36 -159 38 -198 14 -242 -5
-8 -15 -37 -23 -65 -8 -27 -26 -88 -41 -135 -34 -109 -85 -288 -92 -320 -2
-14 -8 -34 -13 -45 -4 -11 -13 -42 -20 -70 -6 -27 -15 -66 -20 -85 -87 -335
-125 -670 -125 -1085 0 -386 17 -484 123 -710 67 -142 70 -171 47 -365 -14
-125 -21 -170 -41 -275 -4 -22 -17 -49 -29 -61 -22 -21 -24 -21 -1229 -28
l-1207 -7 -32 23 c-48 33 -67 57 -97 123 -61 136 -81 271 -82 555 0 291 25
530 77 722 13 51 27 104 31 118 3 14 9 34 14 45 4 11 22 65 39 120 51 158 149
367 261 555 33 56 60 103 60 105 0 16 176 260 229 319 67 74 210 214 258 253
26 21 50 40 53 43 3 3 28 23 55 45 28 21 52 42 55 45 4 6 190 162 232 195 9 8
28 21 42 30 44 29 66 76 66 140 0 60 42 416 70 600 6 33 15 96 21 140 6 44 15
109 20 145 6 36 14 97 20 135 14 106 43 279 63 385 15 78 41 113 91 123 35 7
433 7 623 0z"/>
<path d="M6200 5311 c-75 -24 -186 -77 -240 -114 -89 -61 -142 -127 -204 -252
-72 -147 -96 -208 -146 -385 -7 -25 -18 -63 -25 -85 -7 -22 -20 -76 -30 -120
-9 -44 -21 -89 -25 -100 -5 -11 -20 -85 -35 -165 -14 -80 -32 -178 -40 -218
-23 -116 -57 -363 -75 -547 -14 -143 -14 -454 1 -507 6 -23 36 -91 67 -152 73
-142 81 -161 92 -232 12 -72 12 -341 1 -444 -13 -112 -49 -340 -76 -475 -69
-352 -45 -392 260 -436 145 -21 170 -21 710 -15 1454 16 2016 30 2150 52 64
10 186 56 230 85 44 30 105 93 105 109 0 5 5 10 11 10 8 0 10 27 6 92 -4 78
-11 109 -45 193 -78 193 -92 291 -92 625 0 236 10 341 46 490 16 67 56 192 79
245 7 17 23 55 35 85 12 30 30 73 40 95 10 22 27 65 39 95 12 30 26 64 31 75
5 11 22 56 37 100 27 78 27 85 27 320 0 237 -2 263 -45 525 -29 178 -128 552
-170 647 -10 24 -19 45 -19 49 0 12 -66 101 -110 148 -54 58 -148 125 -210
150 -25 10 -54 22 -65 26 -11 5 -51 17 -90 27 -65 17 -138 18 -1120 20 -989 2
-1053 1 -1105 -16z m2024 -656 c8 -8 18 -15 23 -15 14 -1 41 -45 53 -89 33
-122 -90 -330 -187 -319 -22 2 -33 13 -50 48 -25 51 -29 113 -13 223 18 122
49 167 116 167 25 0 49 -6 58 -15z m-1437 -156 c38 -14 80 -56 106 -104 48
-89 18 -266 -75 -453 -28 -56 -83 -119 -120 -138 -92 -48 -202 4 -249 116 -21
52 -18 267 5 344 33 109 121 214 199 238 35 10 103 9 134 -3z m1083 -1020 c83
-19 120 -77 120 -187 0 -78 -30 -136 -79 -151 -53 -15 -166 -14 -234 4 -108
28 -167 82 -167 152 0 48 16 71 80 118 90 66 181 87 280 64z m-1299 -522 c25
-19 46 -59 53 -98 21 -121 -83 -208 -179 -149 -84 52 -87 181 -7 235 40 27
106 33 133 12z m1294 -702 c111 -20 177 -48 216 -93 28 -31 31 -40 26 -81 -4
-39 -12 -52 -48 -84 -66 -59 -137 -88 -268 -109 -133 -22 -269 28 -334 122
-26 38 -23 112 8 148 38 45 151 95 240 105 60 8 74 7 160 -8z m-1135 -550 c49
-25 84 -83 88 -147 4 -50 1 -64 -22 -98 -41 -63 -96 -83 -205 -78 -78 4 -93 8
-124 31 -81 62 -106 140 -68 214 39 77 110 106 236 97 38 -3 81 -12 95 -19z"/>
</g>
</svg>
