<?xml version="1.0" standalone="no"?>
<!DOCTYPE svg PUBLIC "-//W3C//DTD SVG 20010904//EN"
 "http://www.w3.org/TR/2001/REC-SVG-20010904/DTD/svg10.dtd">
<svg version="1.0" xmlns="http://www.w3.org/2000/svg"
 width="1120.000000pt" height="928.000000pt" viewBox="0 0 1120.000000 928.000000"
 preserveAspectRatio="xMidYMid meet">

<g transform="translate(0.000000,928.000000) scale(0.100000,-0.100000)"
fill="#000000" stroke="none">
<path d="M5018 7890 c-59 -4 -112 -11 -117 -15 -6 -3 -105 -15 -222 -26 -116
-10 -248 -28 -292 -38 -45 -11 -109 -24 -142 -29 -61 -9 -255 -57 -375 -91
-36 -10 -92 -26 -125 -34 -79 -20 -161 -49 -210 -76 -22 -11 -46 -21 -55 -21
-14 0 -97 -36 -150 -66 -14 -7 -41 -21 -60 -30 -19 -9 -37 -20 -40 -24 -6 -9
-99 -75 -116 -81 -18 -7 -79 -82 -109 -133 -25 -45 -29 -65 -38 -190 -7 -92
-11 -1032 -11 -2686 l-1 -2546 27 -51 c71 -138 225 -293 323 -326 16 -6 41
-18 54 -29 13 -10 30 -18 37 -18 7 0 61 -25 120 -55 60 -30 114 -55 122 -55 7
0 41 -11 75 -24 34 -13 116 -40 182 -61 66 -20 152 -47 190 -60 39 -13 109
-28 157 -35 48 -6 106 -17 129 -25 23 -8 98 -19 168 -25 69 -5 158 -17 196
-27 64 -16 130 -18 785 -18 699 0 717 0 795 21 44 12 109 25 145 28 36 3 88
14 115 25 28 10 79 22 113 25 35 4 75 12 89 17 14 5 62 19 107 30 45 12 106
31 136 44 30 13 102 38 160 56 130 40 267 95 299 120 13 11 33 19 45 19 12 0
37 11 56 25 19 14 42 25 53 25 11 0 32 11 49 25 16 14 35 25 42 25 7 0 23 11
36 25 13 14 28 25 34 25 13 0 80 68 124 127 18 22 47 72 65 110 l32 68 0 2585
0 2585 -31 97 c-36 113 -82 185 -168 264 -34 31 -70 64 -81 75 -12 10 -28 19
-36 19 -8 0 -30 11 -49 25 -19 14 -39 25 -46 25 -6 0 -27 11 -46 23 -19 13
-47 27 -63 31 -16 4 -39 16 -52 26 -13 10 -43 21 -66 25 -23 4 -54 13 -68 21
-15 7 -57 18 -95 24 -38 6 -91 20 -118 31 -26 11 -94 31 -150 44 -55 13 -130
30 -166 39 -154 36 -336 67 -485 81 -88 8 -180 20 -205 25 -57 14 -928 21
-1072 10z m1122 -386 c52 -8 174 -21 270 -29 112 -8 189 -19 214 -30 21 -9 85
-20 141 -25 64 -5 111 -14 126 -24 14 -8 54 -20 91 -25 36 -5 77 -16 89 -25
13 -8 51 -19 84 -25 33 -5 78 -19 100 -30 21 -12 47 -21 56 -21 9 0 32 -11 52
-24 19 -13 45 -27 58 -31 39 -13 142 -69 181 -99 43 -32 63 -86 53 -140 -7
-35 -80 -106 -110 -106 -8 0 -23 -9 -32 -20 -10 -11 -33 -25 -53 -31 -19 -7
-46 -20 -59 -30 -13 -11 -29 -19 -36 -19 -7 0 -23 -8 -36 -18 -27 -21 -171
-86 -235 -107 -23 -7 -56 -21 -72 -29 -17 -9 -55 -21 -84 -27 -29 -6 -69 -19
-88 -29 -19 -10 -71 -21 -115 -25 -44 -4 -105 -16 -135 -27 -36 -12 -106 -22
-200 -28 -80 -6 -170 -17 -200 -27 -48 -15 -122 -17 -584 -20 -504 -4 -665 1
-805 27 -30 5 -153 14 -273 20 -154 7 -230 15 -256 25 -20 9 -70 20 -112 26
-41 6 -110 21 -153 35 -43 13 -87 24 -98 24 -27 0 -376 138 -403 159 -6 5 -28
14 -48 20 -21 7 -38 17 -38 22 0 6 -16 17 -37 25 -55 24 -111 73 -123 110 -19
57 -4 99 56 153 58 53 180 124 232 134 18 4 56 18 86 32 29 14 58 25 65 25 7
0 31 11 54 24 23 13 63 26 90 30 26 3 61 13 78 21 16 9 63 20 102 25 40 5 98
18 129 29 32 12 70 21 85 21 16 0 80 11 143 24 63 13 158 27 210 31 52 4 129
14 170 23 141 30 1186 35 1370 6z m1523 -966 c10 -18 11 -60 7 -183 -4 -88 -7
-314 -9 -502 -1 -189 -6 -354 -10 -367 -11 -27 -29 -36 -73 -36 -17 0 -45 -8
-62 -19 -17 -10 -53 -24 -81 -30 -27 -7 -64 -21 -81 -32 -17 -10 -44 -19 -60
-19 -16 0 -49 -10 -74 -21 -25 -11 -73 -25 -107 -30 -34 -5 -76 -17 -95 -28
-18 -10 -55 -22 -82 -26 -28 -4 -70 -15 -95 -25 -25 -9 -82 -21 -126 -24 -44
-4 -109 -16 -145 -26 -36 -10 -133 -24 -220 -30 -85 -7 -186 -18 -225 -25
-114 -22 -264 -27 -740 -26 -451 1 -594 8 -715 35 -36 7 -111 17 -168 20 -56
3 -121 13 -145 22 -23 9 -74 22 -114 29 -40 8 -82 19 -93 25 -12 7 -68 18
-125 25 -57 8 -115 21 -128 30 -14 8 -50 20 -82 25 -32 5 -65 16 -75 25 -9 8
-31 18 -50 21 -29 6 -109 45 -337 163 -34 18 -64 39 -67 47 -8 20 -9 902 -1
914 3 6 15 10 26 10 22 0 112 -43 148 -71 13 -11 31 -19 40 -19 9 0 37 -11 63
-25 26 -14 56 -25 66 -25 11 0 31 -9 45 -20 14 -11 48 -25 76 -30 28 -5 62
-17 76 -26 13 -9 58 -20 99 -25 41 -5 94 -18 118 -29 24 -11 59 -20 79 -20 19
0 73 -11 120 -25 53 -16 130 -29 209 -35 69 -6 159 -17 200 -25 220 -43 1400
-40 1606 4 51 11 141 24 200 30 60 5 129 17 154 26 25 9 72 18 105 21 33 3 92
17 132 30 39 13 86 24 105 24 18 0 56 11 83 25 28 13 64 25 81 25 17 0 42 9
56 19 13 11 42 22 64 26 21 4 51 15 65 25 15 10 42 26 60 35 84 40 209 121
227 147 18 25 59 23 75 -4z m-4233 -3714 c25 -13 93 -48 152 -77 59 -30 113
-58 120 -64 7 -6 33 -16 58 -23 25 -7 52 -18 61 -26 9 -8 38 -19 65 -23 27 -5
69 -18 94 -29 25 -12 61 -22 80 -22 20 0 54 -9 75 -21 29 -15 73 -23 155 -30
63 -6 135 -17 160 -25 25 -8 113 -19 195 -24 83 -6 184 -18 225 -28 66 -15
135 -17 555 -17 423 0 489 2 560 18 44 10 154 22 245 27 91 5 188 16 215 25
28 8 104 19 169 25 64 6 130 17 145 25 16 8 59 19 96 25 37 6 81 18 98 27 17
9 66 20 108 24 42 5 96 18 120 29 24 11 53 20 64 20 11 0 40 11 65 24 25 12
68 28 95 35 28 7 61 19 74 28 14 9 45 21 70 28 25 7 53 16 61 19 9 4 24 0 34
-7 18 -13 19 -36 19 -443 0 -236 -4 -441 -8 -454 -11 -36 -60 -85 -135 -132
-36 -23 -81 -51 -100 -63 -19 -13 -48 -26 -65 -30 -16 -3 -37 -13 -45 -20 -8
-7 -35 -18 -60 -25 -25 -6 -58 -20 -75 -30 -16 -9 -49 -20 -72 -24 -24 -3 -60
-15 -80 -25 -21 -11 -60 -22 -88 -26 -27 -4 -64 -15 -80 -25 -20 -13 -60 -21
-120 -25 -50 -4 -110 -15 -135 -25 -27 -11 -96 -23 -170 -29 -69 -6 -154 -18
-190 -27 -83 -19 -457 -33 -900 -34 -382 0 -630 13 -745 40 -44 10 -123 21
-176 24 -58 3 -118 13 -150 25 -30 10 -88 22 -129 25 -45 4 -91 15 -114 27
-21 11 -69 24 -106 28 -37 5 -78 16 -91 24 -13 8 -43 18 -66 22 -23 4 -53 15
-65 24 -13 10 -38 23 -56 29 -18 6 -45 20 -59 32 -14 11 -31 20 -37 20 -31 0
-193 139 -236 203 l-32 48 1 437 c0 240 1 445 1 454 0 23 49 49 80 42 14 -3
45 -16 70 -30z"/>
</g>
</svg>
