<?xml version="1.0" standalone="no"?>
<!DOCTYPE svg PUBLIC "-//W3C//DTD SVG 20010904//EN"
 "http://www.w3.org/TR/2001/REC-SVG-20010904/DTD/svg10.dtd">
<svg version="1.0" xmlns="http://www.w3.org/2000/svg"
 width="832.000000pt" height="1248.000000pt" viewBox="0 0 832.000000 1248.000000"
 preserveAspectRatio="xMidYMid meet">

<g transform="translate(0.000000,1248.000000) scale(0.100000,-0.100000)"
fill="#000000" stroke="none">
<path d="M1983 10720 c-38 -9 -80 -35 -105 -64 -40 -46 -48 -84 -48 -220 0
-159 14 -212 69 -257 69 -59 67 -59 644 -59 l527 0 0 -385 c0 -359 -1 -386
-17 -391 -41 -11 -162 -79 -213 -118 -36 -27 -59 -54 -67 -76 -9 -26 -12 -185
-12 -581 l-1 -546 -77 -28 c-188 -65 -459 -220 -638 -364 -67 -54 -278 -258
-321 -312 -279 -344 -437 -686 -503 -1089 -43 -255 -43 -259 -39 -2931 l3
-2565 30 -59 c23 -46 42 -66 79 -90 l49 -30 2776 -3 c2001 -2 2789 0 2821 8
59 15 103 50 137 108 l28 47 3 2595 c3 2890 5 2781 -68 3077 -102 408 -310
772 -615 1078 -253 253 -599 464 -937 571 l-78 25 0 1238 c0 1393 5 1298 -75
1369 -24 21 -61 44 -83 50 -45 14 -3213 16 -3269 2z m2829 -972 c3 -205 3
-376 -1 -381 -4 -4 -263 -6 -577 -5 l-569 3 -3 378 -2 377 573 0 574 0 5 -372z
m-1 -1235 c0 -131 2 -262 4 -290 3 -42 0 -55 -13 -62 -9 -4 -339 -8 -732 -7
l-715 1 -3 298 -2 297 730 0 730 0 1 -237z m179 -988 c176 -23 309 -59 470
-128 90 -39 109 -48 197 -98 42 -24 153 -98 169 -113 7 -6 31 -27 55 -46 183
-145 356 -361 460 -571 44 -90 95 -230 127 -349 49 -184 47 -79 47 -2645 l0
-2410 -2370 0 -2370 0 0 2405 c1 2220 2 2413 18 2510 37 227 118 452 224 618
165 258 339 433 579 583 215 134 461 219 714 248 41 5 410 9 820 10 604 1 767
-2 860 -14z"/>
<path d="M2786 5950 c-63 -24 -100 -61 -131 -127 l-25 -52 0 -1456 c0 -1304 2
-1461 16 -1505 17 -52 77 -130 99 -130 7 0 15 -6 17 -12 4 -10 287 -14 1363
-16 l1358 -2 41 21 c43 22 76 55 104 104 16 28 17 131 20 1505 2 1144 0 1485
-10 1520 -17 63 -96 141 -161 158 -36 9 -342 12 -1345 12 -1254 -1 -1299 -2
-1346 -20z"/>
</g>
</svg>
