<?xml version="1.0" encoding="UTF-8"?>
<svg version="1.1" xmlns="http://www.w3.org/2000/svg" width="512" height="512">
<path d="M0 0 C1.82681309 1.67457867 3.63813633 3.3589306 5.4375 5.0625 C6.06076172 5.6517627 6.68402344 6.24102539 7.32617188 6.84814453 C17.81305087 16.84639647 27.0686225 27.23498273 35.4375 39.0625 C35.8814209 39.68302246 36.3253418 40.30354492 36.78271484 40.94287109 C72.22925382 90.8628551 85.60329111 153.86507027 75.4375 214.0625 C64.74437446 271.80199938 32.78917622 326.6883704 -15.5625 361.0625 C-16.2332959 361.53993652 -16.9040918 362.01737305 -17.59521484 362.50927734 C-68.97355878 398.66092708 -131.43400559 413.55439806 -193.5625 403.0625 C-253.18510607 392.02063059 -307.56567151 359.02964323 -342.5625 309.0625 C-343.00207031 308.44632812 -343.44164062 307.83015625 -343.89453125 307.1953125 C-379.35252599 257.27559785 -392.72933212 194.26609412 -382.5625 134.0625 C-374.22561124 89.04593476 -354.07804258 48.3502089 -322.5625 15.0625 C-321.9732373 14.43923828 -321.38397461 13.81597656 -320.77685547 13.17382812 C-310.77860353 2.68694913 -300.39001727 -6.5686225 -288.5625 -14.9375 C-287.94197754 -15.3814209 -287.32145508 -15.8253418 -286.68212891 -16.28271484 C-208.83205091 -71.56149506 -99.13670965 -72.29955208 0 0 Z " fill="#FCF3FB" transform="translate(409.5625,81.9375)"/>
<path d="M0 0 C72.23808043 0 72.23808043 0 87.703125 14.48046875 C96.98492149 24.66203122 99.520681 37.14590836 99.375 50.5 C99.38660156 51.56347656 99.39820313 52.62695312 99.41015625 53.72265625 C99.36139693 66.96893765 95.07868381 78.27924872 86.078125 88.08203125 C74.71632048 98.56820798 62.04683919 101.20946904 47.0625 101.0625 C42.5765625 101.0315625 42.5765625 101.0315625 38 101 C38 90.44 38 79.88 38 69 C47.9 69 57.8 69 68 69 C68 56.46 68 43.92 68 31 C55.79 31 43.58 31 31 31 C31 60.04 31 89.08 31 119 C20.77 119 10.54 119 0 119 C0 79.73 0 40.46 0 0 Z " fill="#0E4D30" transform="translate(125,156)"/>
<path d="M0 0 C13.86 0 27.72 0 42 0 C43.12535156 3.32707031 44.25070312 6.65414062 45.41015625 10.08203125 C54.04826592 35.59656294 62.76053268 61.0820924 71.66796875 86.50390625 C72.07375908 87.66379814 72.07375908 87.66379814 72.48774719 88.84712219 C73.97183324 93.08493703 75.46874377 97.31782337 76.97900391 101.54638672 C77.46691154 102.92019753 77.46691154 102.92019753 77.9646759 104.32176208 C78.59192252 106.08750706 79.22284998 107.85195005 79.85795593 109.61488342 C80.13855362 110.40704758 80.41915131 111.19921173 80.70825195 112.01538086 C80.95815384 112.71384628 81.20805573 113.41231171 81.4655304 114.13194275 C82 116 82 116 82 119 C71.77 119 61.54 119 51 119 C50.01 116.421875 49.02 113.84375 48 111.1875 C47.68675781 110.37949951 47.37351562 109.57149902 47.05078125 108.73901367 C46.80714844 108.09681885 46.56351562 107.45462402 46.3125 106.79296875 C46.06113281 106.1383667 45.80976563 105.48376465 45.55078125 104.80932617 C45 103 45 103 45 100 C31.14 100 17.28 100 3 100 C6.87961647 96.12038353 9.56583267 93.7842446 14 91 C11.36 90.67 8.72 90.34 6 90 C9.25901019 86.48026899 12.8860931 83.47239725 17 81 C17.66 81 18.32 81 19 81 C19 80.34 19 79.68 19 79 C16.36 79 13.72 79 11 79 C18.07523477 71.49596312 21.89674746 69.11032525 33 68 C29.04 56.45 25.08 44.9 21 33 C14.61252948 50.006074 8.73346893 67.17579808 2.85742188 84.36328125 C1.28073122 88.9732613 -0.299293 93.58209982 -1.87873077 98.19113922 C-4.25498274 105.12657516 -6.62710878 112.06340942 -9 119 C-19.56 119 -30.12 119 -41 119 C-29.59674406 84.64769148 -18.1085436 50.32075828 -6.0625 16.1875 C-5.80702393 15.4628656 -5.55154785 14.7382312 -5.28833008 13.99163818 C-1.18861531 2.37723061 -1.18861531 2.37723061 0 0 Z " fill="#0E4D30" transform="translate(385,156)"/>
<path d="M0 0 C1.35762988 0.00186785 2.71526044 0.00329002 4.07289124 0.00428772 C7.62547709 0.00808403 11.17802129 0.01788929 14.73059082 0.0289917 C18.36400794 0.03926824 21.99743187 0.04379865 25.63085938 0.04882812 C32.74480858 0.05951448 39.85872968 0.07655576 46.97265625 0.09765625 C46.97265625 2.40765625 46.97265625 4.71765625 46.97265625 7.09765625 C42.68265625 8.08765625 38.39265625 9.07765625 33.97265625 10.09765625 C36.54159463 11.38212544 38.73841962 11.42742769 41.59765625 11.66015625 C42.60054688 11.74394531 43.6034375 11.82773438 44.63671875 11.9140625 C45.79300781 12.00494141 45.79300781 12.00494141 46.97265625 12.09765625 C46.97265625 14.40765625 46.97265625 16.71765625 46.97265625 19.09765625 C42.35265625 19.75765625 37.73265625 20.41765625 32.97265625 21.09765625 C37.59265625 22.41765625 42.21265625 23.73765625 46.97265625 25.09765625 C46.97265625 27.40765625 46.97265625 29.71765625 46.97265625 32.09765625 C45.8651149 32.10312469 45.8651149 32.10312469 44.73519897 32.10870361 C37.76137283 32.14664164 30.78792911 32.20356021 23.81444359 32.28155899 C20.22963054 32.32099226 16.64506158 32.35320063 13.06005859 32.36865234 C9.59732885 32.38384699 6.13527033 32.41834033 2.67284012 32.46596527 C0.71545884 32.48792378 -1.24211194 32.49012758 -3.19961548 32.49200439 C-11.96769697 32.52830587 -11.96769697 32.52830587 -19.02734375 37.09765625 C-22.28773039 41.09418984 -22.46904177 44.83241017 -22.42578125 49.8125 C-22.43008652 50.91254112 -22.43008652 50.91254112 -22.43447876 52.0348053 C-22.43651324 53.58042171 -22.43102654 55.12606422 -22.41845703 56.67163086 C-22.40241628 59.02451813 -22.41831327 61.37568191 -22.4375 63.72851562 C-22.43551701 65.23568084 -22.43167217 66.74284499 -22.42578125 68.25 C-22.43185394 68.94705551 -22.43792664 69.64411102 -22.44418335 70.36228943 C-22.35831396 76.39276213 -20.95466898 80.16508166 -16.69677734 84.43457031 C-11.56158542 87.47489345 -5.07520144 86.70150983 0.68359375 86.70703125 C2.02025341 86.72202631 3.35689463 86.73875624 4.69351196 86.75714111 C8.19513845 86.80067934 11.69651506 86.82078315 15.19836426 86.83587646 C18.77822563 86.85549688 22.35781907 86.89746109 25.9375 86.9375 C32.94911741 87.01265478 39.96072467 87.06303509 46.97265625 87.09765625 C46.97265625 89.40765625 46.97265625 91.71765625 46.97265625 94.09765625 C42.35265625 95.41765625 37.73265625 96.73765625 32.97265625 98.09765625 C37.59265625 98.75765625 42.21265625 99.41765625 46.97265625 100.09765625 C46.97265625 102.40765625 46.97265625 104.71765625 46.97265625 107.09765625 C46.20179688 107.15824219 45.4309375 107.21882813 44.63671875 107.28125 C43.63382812 107.36503906 42.6309375 107.44882812 41.59765625 107.53515625 C40.59992188 107.61636719 39.6021875 107.69757813 38.57421875 107.78125 C35.99338012 107.94731251 35.99338012 107.94731251 33.97265625 109.09765625 C38.26265625 110.08765625 42.55265625 111.07765625 46.97265625 112.09765625 C46.97265625 114.40765625 46.97265625 116.71765625 46.97265625 119.09765625 C38.93121695 119.16749505 30.88990664 119.22063799 22.84823799 119.25309277 C19.11323375 119.26867782 15.37843862 119.28978309 11.64355469 119.32397461 C8.0319809 119.35682634 4.42060691 119.37456295 0.80889511 119.38228798 C-0.56166855 119.38778561 -1.9322226 119.39851973 -3.30270004 119.41484642 C-18.09281614 119.58386455 -30.61865044 116.29014691 -41.77734375 106.09765625 C-53.97029755 93.11664799 -55.40121099 77.66632161 -55.39794922 60.76708984 C-55.40232301 58.23466719 -55.4387404 55.70399094 -55.4765625 53.171875 C-55.5842175 37.71504339 -52.11642915 24.81966043 -41.65234375 12.97265625 C-37.85200343 9.36343556 -33.60097875 7.01803485 -28.96484375 4.66015625 C-28.29211426 4.31774902 -27.61938477 3.9753418 -26.92626953 3.62255859 C-18.21727131 -0.55835691 -9.50754151 -0.03780019 0 0 Z " fill="#067B4A" transform="translate(290.02734375,155.90234375)"/>
<path d="M0 0 C13.2 0 26.4 0 40 0 C40 6.27 40 12.54 40 19 C38.02 19 36.04 19 34 19 C34 23.29 34 27.58 34 32 C35.98 32 37.96 32 40 32 C40 36.62 40 41.24 40 46 C38.02 46 36.04 46 34 46 C34 50.62 34 55.24 34 60 C35.98 60 37.96 60 40 60 C40 64.29 40 68.58 40 73 C38.02 73 36.04 73 34 73 C34 77.62 34 82.24 34 87 C35.98 87 37.96 87 40 87 C40 91.29 40 95.58 40 100 C38.02 100 36.04 100 34 100 C34 103.3 34 106.6 34 110 C35.98 110 37.96 110 40 110 C40 112.97 40 115.94 40 119 C26.47 119 12.94 119 -1 119 C-1 112.73 -1 106.46 -1 100 C0.98 100 2.96 100 5 100 C5 95.71 5 91.42 5 87 C3.02 87 1.04 87 -1 87 C-1 82.38 -1 77.76 -1 73 C0.98 73 2.96 73 5 73 C5 68.38 5 63.76 5 59 C3.35 59 1.7 59 0 59 C0 54.71 0 50.42 0 46 C1.65 46 3.3 46 5 46 C5 41.38 5 36.76 5 32 C3.35 32 1.7 32 0 32 C0 27.71 0 23.42 0 19 C1.65 19 3.3 19 5 19 C5 15.7 5 12.4 5 9 C3.35 9 1.7 9 0 9 C0 6.03 0 3.06 0 0 Z " fill="#057B48" transform="translate(66,156)"/>
<path d="M0 0 C3.57928612 2.1786959 5.40879905 4.17270609 7 8 C7.79531852 13.68084659 7.11160916 18.09323171 4 23 C1.56642204 25.43357796 0.48501131 25.41100776 -2.875 25.75 C-3.73867188 25.84796875 -4.60234375 25.9459375 -5.4921875 26.046875 C-8.29190811 25.99454377 -9.69165185 25.56241906 -12 24 C-15.32987002 18.05380354 -15.99091069 12.96364278 -14.3125 6.25 C-10.91188877 0.42038074 -6.44025235 -1.30369481 0 0 Z " fill="#0B7C47" transform="translate(330,330)"/>
<path d="M0 0 C2.8100346 1.79363911 4.50940468 3.01880935 6 6 C6.14901491 8.10053716 6.22138453 10.20687825 6.25 12.3125 C6.27578125 13.44300781 6.3015625 14.57351563 6.328125 15.73828125 C5.96360821 19.36175168 5.23873288 21.15116198 3 24 C-0.64710879 26.52607125 -3.64215162 26.13167642 -7.875 25.546875 C-10.85779164 24.7792448 -12.24181038 23.49076863 -14 21 C-15.82794504 15.51616488 -15.9408289 9.30503079 -13.75 3.9375 C-9.93055129 -0.29117535 -5.57974566 -0.92995761 0 0 Z " fill="#097B46" transform="translate(247,330)"/>
<path d="M0 0 C2.43592844 1.89461101 3.13318403 2.92073287 4.25 5.75 C4.96297696 11.87974995 4.95752287 17.58595028 1.25 22.75 C-1.8505184 24.74511619 -4.10729154 24.99291001 -7.75 24.6875 C-8.595625 24.63464844 -9.44125 24.58179688 -10.3125 24.52734375 C-13.80308762 23.41415956 -14.88415725 21.86819979 -16.75 18.75 C-17.60802046 13.63738154 -18.1624901 7.49411245 -15.7265625 2.76171875 C-11.37107981 -1.71254984 -5.56315208 -2.52870549 0 0 Z " fill="#097A46" transform="translate(105.75,331.25)"/>
<path d="M0 0 C2.1875 1.6875 2.1875 1.6875 4.1875 4.6875 C4.89562138 10.75498216 5.30667771 16.60351392 2.375 22.0625 C-2.3356215 24.46399332 -6.63143395 24.56564679 -11.8125 23.6875 C-14.97870095 21.50131363 -15.6021387 20.31858389 -16.8125 16.6875 C-17.20808481 11.77311954 -17.44204419 7.22988326 -15.5625 2.625 C-11.2735423 -2.12348888 -5.81786779 -2.71500497 0 0 Z " fill="#0E4B2A" transform="translate(234.8125,294.3125)"/>
<path d="M0 0 C2.1875 1.6875 2.1875 1.6875 4.1875 4.6875 C4.48828125 7.6484375 4.48828125 7.6484375 4.5 11.0625 C4.51675781 12.18398438 4.53351563 13.30546875 4.55078125 14.4609375 C4.15293805 17.9944696 3.30126875 19.85885569 1.1875 22.6875 C-2.7428686 24.6526843 -7.5272185 24.15659886 -11.8125 23.6875 C-14.97870095 21.50131363 -15.6021387 20.31858389 -16.8125 16.6875 C-17.20808481 11.77311954 -17.44204419 7.22988326 -15.5625 2.625 C-11.2735423 -2.12348888 -5.81786779 -2.71500497 0 0 Z " fill="#0E4B2A" transform="translate(462.8125,294.3125)"/>
<path d="M0 0 C4.24942425 0.06923705 6.77475807 0.14617981 10.625 2 C13.27086862 7.49526559 13.4218981 13.41900024 12.25 19.375 C10.19921875 22.29296875 10.19921875 22.29296875 7.25 24.375 C4.4112599 24.74271245 2.23179849 24.86130804 -0.5625 24.6875 C-1.25537109 24.66494141 -1.94824219 24.64238281 -2.66210938 24.61914062 C-4.35901573 24.56062661 -6.05479861 24.4709548 -7.75 24.375 C-7.77887236 20.56251574 -7.79675492 16.7500593 -7.8125 12.9375 C-7.82087891 11.84888672 -7.82925781 10.76027344 -7.83789062 9.63867188 C-7.84111328 8.60419922 -7.84433594 7.56972656 -7.84765625 6.50390625 C-7.85289307 5.54556885 -7.85812988 4.58723145 -7.86352539 3.59985352 C-7.6244707 -1.08510427 -3.94474424 0.10639352 0 0 Z " fill="#0D7C48" transform="translate(72.75,330.625)"/>
<path d="M0 0 C2.43592844 1.89461101 3.13318403 2.92073287 4.25 5.75 C4.9708838 11.94772829 4.86934678 17.46018548 1.25 22.75 C-1.31564725 24.03282363 -3.26033069 23.95391953 -6.125 24 C-7.08148438 24.02578125 -8.03796875 24.0515625 -9.0234375 24.078125 C-12.18428645 23.6977363 -13.48991733 22.95848261 -15.75 20.75 C-16.80336511 17.58990467 -16.95032888 15.1946864 -17 11.875 C-17.03867187 10.33199219 -17.03867187 10.33199219 -17.078125 8.7578125 C-16.70414547 5.32966682 -15.78970796 3.50385032 -13.75 0.75 C-9.17107312 -1.84885039 -4.80535149 -2.18425068 0 0 Z " fill="#0D4A28" transform="translate(287.75,294.25)"/>
<path d="M0 0 C13.24210988 -0.49503214 13.24210988 -0.49503214 16.89453125 1.890625 C20.05473303 5.05668986 20.17895095 6.93706244 20.25 11.3125 C20.20512555 17.02651321 19.04544558 19.95455442 15 24 C12.41048555 24.14547834 9.95814609 24.18649052 7.375 24.125 C3.724375 24.063125 3.724375 24.063125 0 24 C0 16.08 0 8.16 0 0 Z " fill="#037840" transform="translate(292,331)"/>
<path d="M0 0 C12.84453579 -0.60021195 12.84453579 -0.60021195 16.0078125 1.04296875 C19.08595544 4.18562367 20.16276254 6.9753643 20.25 11.25 C20.20191625 15.51571578 19.38484197 18.37857331 17 22 C13.2632157 24.49118953 11.25548181 24.2065226 6.8125 24.125 C4.564375 24.08375 2.31625 24.0425 0 24 C0 16.08 0 8.16 0 0 Z " fill="#057943" transform="translate(209,331)"/>
<path d="M0 0 C2.31 0 4.62 0 7 0 C9.21484375 2.625 9.21484375 2.625 10.9375 6 C11.52402344 7.11375 12.11054688 8.2275 12.71484375 9.375 C13.13894531 10.24125 13.56304687 11.1075 14 12 C14.33 8.04 14.66 4.08 15 0 C17.31 0 19.62 0 22 0 C22 7.92 22 15.84 22 24 C15 24 15 24 12.8203125 21.8828125 C12.26085937 20.97273438 11.70140625 20.06265625 11.125 19.125 C10.26261719 17.76761719 10.26261719 17.76761719 9.3828125 16.3828125 C8.54815747 14.94456513 7.7436672 13.4873344 7 12 C6.67 15.96 6.34 19.92 6 24 C4.02 24 2.04 24 0 24 C0 16.08 0 8.16 0 0 Z " fill="#145030" transform="translate(389,294)"/>
<path d="M0 0 C1.98 0 3.96 0 6 0 C8.08203125 2.1171875 8.08203125 2.1171875 9.8125 4.875 C10.39644531 5.77992188 10.98039062 6.68484375 11.58203125 7.6171875 C12.43528678 9.05103288 13.25381536 10.50763072 14 12 C14.33 8.04 14.66 4.08 15 0 C16.98 0 18.96 0 21 0 C21 7.92 21 15.84 21 24 C18.69 24 16.38 24 14 24 C11.78515625 21.375 11.78515625 21.375 10.0625 18 C9.47597656 16.88625 8.88945313 15.7725 8.28515625 14.625 C7.64900391 13.325625 7.64900391 13.325625 7 12 C6.67 15.96 6.34 19.92 6 24 C4.02 24 2.04 24 0 24 C0 16.08 0 8.16 0 0 Z " fill="#0E4B2A" transform="translate(77,294)"/>
<path d="M0 0 C13.2731377 -0.36869827 13.2731377 -0.36869827 16.42578125 1.23046875 C18.40131739 3.45110863 18.51102945 4.55882196 18.4375 7.5 C18.43621094 8.2734375 18.43492187 9.046875 18.43359375 9.84375 C17.89535087 12.5204173 17.1963648 13.40219408 15 15 C12.32681142 15.66957496 9.76174963 15.77362708 7 16 C7 18.64 7 21.28 7 24 C4.69 24 2.38 24 0 24 C0 16.08 0 8.16 0 0 Z " fill="#124C2C" transform="translate(250,294)"/>
<path d="M0 0 C2.31 0 4.62 0 7 0 C15 19.23404255 15 19.23404255 15 24 C13.02 24 11.04 24 9 24 C8.814375 23.360625 8.62875 22.72125 8.4375 22.0625 C7.05753944 19.57873787 7.05753944 19.57873787 3.375 19.25 C2.26125 19.1675 1.1475 19.085 0 19 C-0.33 20.65 -0.66 22.3 -1 24 C-2.98 24 -4.96 24 -7 24 C-6.40531984 18.33171945 -4.90757199 13.39677846 -2.9375 8.0625 C-2.65583984 7.28326172 -2.37417969 6.50402344 -2.08398438 5.70117188 C-1.39532294 3.79859875 -0.69850097 1.89898275 0 0 Z " fill="#127F4C" transform="translate(352,331)"/>
<path d="M0 0 C2.64 0 5.28 0 8 0 C9.17400588 3.43503772 10.33793209 6.87340714 11.5 10.3125 C11.83386719 11.28896484 12.16773438 12.26542969 12.51171875 13.27148438 C12.82753906 14.20927734 13.14335937 15.14707031 13.46875 16.11328125 C13.90864258 17.40939331 13.90864258 17.40939331 14.35742188 18.73168945 C15 21 15 21 15 24 C13.02 24 11.04 24 9 24 C8.67 22.35 8.34 20.7 8 19 C5.36 19 2.72 19 0 19 C-0.33 20.65 -0.66 22.3 -1 24 C-2.98 24 -4.96 24 -7 24 C-5.40554307 15.73781407 -2.73981931 7.93711014 0 0 Z " fill="#087A44" transform="translate(191,331)"/>
<path d="M0 0 C2.31 0 4.62 0 7 0 C9.64 7.92 12.28 15.84 15 24 C12.69 24 10.38 24 8 24 C7.67 22.35 7.34 20.7 7 19 C4.69 19.33 2.38 19.66 0 20 C-0.33 21.32 -0.66 22.64 -1 24 C-3.31 24 -5.62 24 -8 24 C-5.69356492 15.86184696 -2.89571216 7.94317882 0 0 Z " fill="#0F7E4B" transform="translate(148,331)"/>
<path d="M0 0 C5.61 0 11.22 0 17 0 C17 1.65 17 3.3 17 5 C13.37 5 9.74 5 6 5 C6 6.32 6 7.64 6 9 C9.3 9 12.6 9 16 9 C16 10.65 16 12.3 16 14 C13.03 14 10.06 14 7 14 C7 15.65 7 17.3 7 19 C10.3 19 13.6 19 17 19 C17 20.65 17 22.3 17 24 C11.39 24 5.78 24 0 24 C0 16.08 0 8.16 0 0 Z " fill="#0E7C47" transform="translate(391,331)"/>
<path d="M0 0 C1.98 0 3.96 0 6 0 C6.33 5.94 6.66 11.88 7 18 C8.32 18.33 9.64 18.66 11 19 C12.51421001 17.48578999 12.21309856 16.07527232 12.31640625 13.96484375 C12.35830078 13.15595703 12.40019531 12.34707031 12.44335938 11.51367188 C12.50233398 10.2384668 12.50233398 10.2384668 12.5625 8.9375 C12.60568359 8.08349609 12.64886719 7.22949219 12.69335938 6.34960938 C12.79976702 4.23327963 12.90041731 2.11666187 13 0 C14.98 0 16.96 0 19 0 C19.11638036 3.24969769 19.18730581 6.4988583 19.25 9.75 C19.28351563 10.67039062 19.31703125 11.59078125 19.3515625 12.5390625 C19.44952401 19.29840646 19.44952401 19.29840646 17.328125 22.609375 C14.51388574 24.29036355 12.76767145 24.53590848 9.5 24.5 C8.5615625 24.5103125 7.623125 24.520625 6.65625 24.53125 C4 24 4 24 1.671875 22.609375 C-0.95415386 18.51080659 -0.4230485 14.50217808 -0.25 9.75 C-0.23195312 8.81414062 -0.21390625 7.87828125 -0.1953125 6.9140625 C-0.14825673 4.60832985 -0.08253713 2.30469055 0 0 Z " fill="#094722" transform="translate(175,294)"/>
<path d="M0 0 C5.61 0 11.22 0 17 0 C17 1.65 17 3.3 17 5 C13.37 5 9.74 5 6 5 C6 6.32 6 7.64 6 9 C9.3 9 12.6 9 16 9 C16 10.65 16 12.3 16 14 C12.7 14 9.4 14 6 14 C6.33 15.65 6.66 17.3 7 19 C10.3 19.33 13.6 19.66 17 20 C17 21.32 17 22.64 17 24 C11.39 24 5.78 24 0 24 C0 16.08 0 8.16 0 0 Z " fill="#077942" transform="translate(264,331)"/>
<path d="M0 0 C5.28 0 10.56 0 16 0 C16 1.32 16 2.64 16 4 C12.7 4 9.4 4 6 4 C6 5.65 6 7.3 6 9 C9.3 9 12.6 9 16 9 C16 10.65 16 12.3 16 14 C12.7 14 9.4 14 6 14 C6 15.65 6 17.3 6 19 C9.63 19 13.26 19 17 19 C17 20.65 17 22.3 17 24 C11.39 24 5.78 24 0 24 C0 16.08 0 8.16 0 0 Z " fill="#0D4A26" transform="translate(347,294)"/>
<path d="M0 0 C1.98 0 3.96 0 6 0 C7.32 4.29 8.64 8.58 10 13 C11.88695626 8.71146306 13.58192622 4.47238653 15 0 C16.98 0 18.96 0 21 0 C19.40554307 8.26218593 16.73981931 16.06288986 14 24 C11.69 24 9.38 24 7 24 C5.82307643 20.75362269 4.66027726 17.5023602 3.5 14.25 C3.16613281 13.32960938 2.83226562 12.40921875 2.48828125 11.4609375 C2.17246094 10.57148438 1.85664063 9.68203125 1.53125 8.765625 C1.23798828 7.94868164 0.94472656 7.13173828 0.64257812 6.29003906 C0 4 0 4 0 0 Z " fill="#067943" transform="translate(367,331)"/>
<path d="M0 0 C1.98 0 3.96 0 6 0 C6.64910154 1.58199631 7.29414694 3.16565724 7.9375 4.75 C8.29714844 5.63171875 8.65679687 6.5134375 9.02734375 7.421875 C10 10 10 10 11 14 C12.65 9.38 14.3 4.76 16 0 C17.98 0 19.96 0 22 0 C19.86662595 8.06480039 17.49320448 16.03946386 15 24 C12.69 24 10.38 24 8 24 C5.36 16.08 2.72 8.16 0 0 Z " fill="#047841" transform="translate(162,331)"/>
<path d="M0 0 C0.33 0.66 0.66 1.32 1 2 C0.67 2.99 0.34 3.98 0 5 C-2.64 5 -5.28 5 -8 5 C-8.33 5.99 -8.66 6.98 -9 8 C-8.113125 8.2475 -7.22625 8.495 -6.3125 8.75 C-2.77461912 10.08504939 -0.59750355 11.24970212 2 14 C2.5625 17 2.5625 17 2 20 C0.1329009 22.30275556 -1.35647741 23.67823871 -4 25 C-5.71233688 24.9129796 -7.42175406 24.75902838 -9.125 24.5625 C-10.03507812 24.46066406 -10.94515625 24.35882813 -11.8828125 24.25390625 C-12.58148438 24.17011719 -13.28015625 24.08632813 -14 24 C-14.625 22.125 -14.625 22.125 -15 20 C-14.34 19.34 -13.68 18.68 -13 18 C-10.27130593 18.03287583 -7.7033382 18.56397771 -5 19 C-5.19584825 17.05553418 -5.19584825 17.05553418 -6 15 C-7.81017323 13.72813201 -7.81017323 13.72813201 -10 12.875 C-13.90660592 11.18678815 -13.90660592 11.18678815 -15 9 C-15.45454545 3.65909091 -15.45454545 3.65909091 -13.75 1.1875 C-9.28068146 -1.84525187 -5.09842815 -0.91938868 0 0 Z " fill="#0F4A29" transform="translate(117,294)"/>
<path d="M0 0 C0 1.32 0 2.64 0 4 C-1.27875 4.12375 -2.5575 4.2475 -3.875 4.375 C-7.34790936 4.69042399 -7.34790936 4.69042399 -10 7 C-10.31899515 9.36955386 -10.31899515 9.36955386 -10.25 12 C-10.25515625 12.886875 -10.2603125 13.77375 -10.265625 14.6875 C-10.22052862 17.19400239 -10.22052862 17.19400239 -8 19 C-5.34462628 19.56520003 -2.70855287 19.73788198 0 20 C0 21.32 0 22.64 0 24 C-5.91876618 25.09168354 -9.74153036 25.46289464 -15 22 C-18.0272325 18.9727675 -18.17352056 15.79438311 -18.3125 11.625 C-18.25980442 7.05554044 -17.06195599 4.48722766 -14 1 C-10.31734498 -1.89351466 -4.11895917 -2.05947959 0 0 Z " fill="#0B7B46" transform="translate(138,331)"/>
<path d="M0 0 C1.19882812 0.15275391 1.19882812 0.15275391 2.421875 0.30859375 C3.02515625 0.39238281 3.6284375 0.47617187 4.25 0.5625 C3.92 1.8825 3.59 3.2025 3.25 4.5625 C1.97125 4.68625 0.6925 4.81 -0.625 4.9375 C-4.09790936 5.25292399 -4.09790936 5.25292399 -6.75 7.5625 C-7.10639561 9.66667968 -7.10639561 9.66667968 -7.0625 12 C-7.07925781 12.78246094 -7.09601563 13.56492187 -7.11328125 14.37109375 C-6.66164931 17.09545417 -5.95739072 17.93971504 -3.75 19.5625 C-0.13976901 20.29291853 -0.13976901 20.29291853 3.25 20.5625 C3.25 21.8825 3.25 23.2025 3.25 24.5625 C0.03034329 26.17232835 -3.25855412 26.02326702 -6.75 25.5625 C-10.42291762 23.79405818 -12.22736359 22.51687954 -14.1875 18.9375 C-14.95984712 14.30341726 -14.93667968 10.1266526 -13.75 5.5625 C-9.74048793 0.25260564 -6.39542719 -0.8464536 0 0 Z " fill="#124D2D" transform="translate(439.75,293.4375)"/>
<path d="M0 0 C-0.33 1.32 -0.66 2.64 -1 4 C-4.02734375 4.24414062 -4.02734375 4.24414062 -7.0546875 4.48828125 C-9.39519216 4.87393036 -9.39519216 4.87393036 -11 8 C-11.53663089 11.45673923 -11.62118814 14.79644797 -10 17.9375 C-6.78963377 19.64300706 -3.60700273 19.70434404 0 20 C0 21.32 0 22.64 0 24 C-2.08218362 24.10832169 -4.16599129 24.18573541 -6.25 24.25 C-7.99023438 24.31960938 -7.99023438 24.31960938 -9.765625 24.390625 C-13 24 -13 24 -15.359375 22.109375 C-19.11351208 17.28262733 -18.5673365 11.90187557 -18 6 C-16.23824919 2.7374985 -14.89348115 1.56161673 -11.8125 -0.375 C-7.75861013 -1.27586441 -4.06558154 -0.65545323 0 0 Z " fill="#0A4826" transform="translate(385,294)"/>
<path d="M0 0 C6.6 0 13.2 0 20 0 C20 1.32 20 2.64 20 4 C17.69 4 15.38 4 13 4 C13 10.6 13 17.2 13 24 C10.69 24 8.38 24 6 24 C6 17.73 6 11.46 6 5 C4.02 5 2.04 5 0 5 C0 3.35 0 1.7 0 0 Z " fill="#185030" transform="translate(197,294)"/>
<path d="M0 0 C6.27 0 12.54 0 19 0 C19 1.65 19 3.3 19 5 C17.02 5 15.04 5 13 5 C13 11.27 13 17.54 13 24 C10.69 24 8.38 24 6 24 C6 17.4 6 10.8 6 4 C4.02 4 2.04 4 0 4 C0 2.68 0 1.36 0 0 Z " fill="#134E2D" transform="translate(121,294)"/>
<path d="M0 0 C6.6 0 13.2 0 20 0 C20 1.32 20 2.64 20 4 C17.69 4 15.38 4 13 4 C13 10.6 13 17.2 13 24 C11.02 24 9.04 24 7 24 C7 17.4 7 10.8 7 4 C4.69 4 2.38 4 0 4 C0 2.68 0 1.36 0 0 Z " fill="#084521" transform="translate(324,294)"/>
<path d="M0 0 C6.6 0 13.2 0 20 0 C20 1.32 20 2.64 20 4 C17.69 4 15.38 4 13 4 C13 10.6 13 17.2 13 24 C11.02 24 9.04 24 7 24 C7 17.4 7 10.8 7 4 C4.69 4 2.38 4 0 4 C0 2.68 0 1.36 0 0 Z " fill="#094620" transform="translate(152,294)"/>
<path d="M0 0 C1.98 0 3.96 0 6 0 C6 6.6 6 13.2 6 20 C9.3 20 12.6 20 16 20 C16 21.32 16 22.64 16 24 C10.72 24 5.44 24 0 24 C0 16.08 0 8.16 0 0 Z " fill="#084520" transform="translate(296,294)"/>
<path d="M0 0 C2.31 0 4.62 0 7 0 C7 7.92 7 15.84 7 24 C4.69 24 2.38 24 0 24 C0 16.08 0 8.16 0 0 Z " fill="#1B5133" transform="translate(415,294)"/>
<path d="M0 0 C2.31 0 4.62 0 7 0 C7 7.92 7 15.84 7 24 C4.69 24 2.38 24 0 24 C0 16.08 0 8.16 0 0 Z " fill="#1A5032" transform="translate(143,294)"/>
<path d="M0 0 C2.31 0 4.62 0 7 0 C7 7.92 7 15.84 7 24 C4.69 24 2.38 24 0 24 C0 16.08 0 8.16 0 0 Z " fill="#1B5033" transform="translate(65,294)"/>
<path d="M0 0 C1.98 0 3.96 0 6 0 C6 7.92 6 15.84 6 24 C4.02 24 2.04 24 0 24 C0 16.08 0 8.16 0 0 Z " fill="#09451F" transform="translate(315,294)"/>
<path d="M0 0 C4.875 0.875 4.875 0.875 6 2 C6.12514928 3.97619447 6.1757276 5.95738173 6.1875 7.9375 C6.20167969 9.01902344 6.21585937 10.10054688 6.23046875 11.21484375 C6 14 6 14 4 16 C1.5 15.8125 1.5 15.8125 -1 15 C-3.45416273 11.3187559 -3.59384154 8.27738037 -3 4 C-1.5 1.5 -1.5 1.5 0 0 Z " fill="#EFEBF1" transform="translate(324,335)"/>
<path d="M0 0 C2.375 0.8125 2.375 0.8125 3.375 2.8125 C3.52140501 4.45392541 3.59596589 6.1023141 3.625 7.75 C3.66367188 9.06291016 3.66367188 9.06291016 3.703125 10.40234375 C3.375 12.8125 3.375 12.8125 1.98828125 14.640625 C0.375 15.8125 0.375 15.8125 -1.6875 15.625 C-3.625 14.8125 -3.625 14.8125 -5.625 12.8125 C-5.92578125 10.53515625 -5.92578125 10.53515625 -5.9375 7.875 C-5.95425781 6.99972656 -5.97101563 6.12445313 -5.98828125 5.22265625 C-5.625 2.8125 -5.625 2.8125 -4.26953125 0.984375 C-2.625 -0.1875 -2.625 -0.1875 0 0 Z " fill="#F1EDF3" transform="translate(243.625,335.1875)"/>
<path d="M0 0 C4.75 0.75 4.75 0.75 7 3 C7.30078125 5.27734375 7.30078125 5.27734375 7.3125 7.9375 C7.32925781 8.81277344 7.34601563 9.68804687 7.36328125 10.58984375 C7 13 7 13 5.64453125 14.828125 C4 16 4 16 1.375 15.8125 C-1 15 -1 15 -2 13 C-2.12114921 11.35744209 -2.17540767 9.70947522 -2.1875 8.0625 C-2.20167969 7.18722656 -2.21585937 6.31195313 -2.23046875 5.41015625 C-2 3 -2 3 0 0 Z " fill="#F1ECF2" transform="translate(97,335)"/>
<path d="M0 0 C2.375 0.75 2.375 0.75 3.375 1.75 C3.52635944 3.5372057 3.59675778 5.33161876 3.625 7.125 C3.66367187 8.59066406 3.66367187 8.59066406 3.703125 10.0859375 C3.375 12.75 3.375 12.75 1.98828125 14.609375 C0.375 15.75 0.375 15.75 -1.6875 15.625 C-3.625 14.75 -3.625 14.75 -5.625 11.75 C-5.92578125 9.59375 -5.92578125 9.59375 -5.9375 7.25 C-5.95425781 6.4765625 -5.97101563 5.703125 -5.98828125 4.90625 C-5.35685515 1.15843059 -3.78369905 -0.36035229 0 0 Z " fill="#F1EBF2" transform="translate(457.625,298.25)"/>
<path d="M0 0 C2.9375 0.375 2.9375 0.375 6 1 C7.22691067 3.45382134 7.20175931 5.19984103 7.25 7.9375 C7.28867187 9.25041016 7.28867187 9.25041016 7.328125 10.58984375 C7 13 7 13 5.61328125 14.828125 C4 16 4 16 1.9375 15.8125 C0 15 0 15 -2 13 C-2.265625 10.72265625 -2.265625 10.72265625 -2.25 8.0625 C-2.25515625 7.18722656 -2.2603125 6.31195313 -2.265625 5.41015625 C-2 3 -2 3 0 0 Z " fill="#F1EBF2" transform="translate(279,298)"/>
<path d="M0 0 C2.375 0.75 2.375 0.75 3.375 1.75 C3.52635944 3.5372057 3.59675778 5.33161876 3.625 7.125 C3.66367188 8.59066406 3.66367188 8.59066406 3.703125 10.0859375 C3.375 12.75 3.375 12.75 1.98828125 14.609375 C0.375 15.75 0.375 15.75 -1.6875 15.625 C-3.625 14.75 -3.625 14.75 -5.625 11.75 C-5.92578125 9.59375 -5.92578125 9.59375 -5.9375 7.25 C-5.95425781 6.4765625 -5.97101563 5.703125 -5.98828125 4.90625 C-5.35685515 1.15843059 -3.78369905 -0.36035229 0 0 Z " fill="#F1EBF2" transform="translate(229.625,298.25)"/>
<path d="M0 0 C5 0 5 0 6.8125 1.5 C8.49369491 5.03935771 8.71774982 8.150968 8 12 C6.25 14.5 6.25 14.5 4 16 C2.68 16 1.36 16 0 16 C0 10.72 0 5.44 0 0 Z " fill="#E0E2E4" transform="translate(298,335)"/>
<path d="M0 0 C6 1 6 1 7 2 C7.15135944 3.7872057 7.22175778 5.58161876 7.25 7.375 C7.27578125 8.35210937 7.3015625 9.32921875 7.328125 10.3359375 C7 13 7 13 5.734375 14.8515625 C4 16 4 16 0 16 C0 10.72 0 5.44 0 0 Z " fill="#EBE9ED" transform="translate(215,335)"/>
<path d="M0 0 C5 1 5 1 7 3 C7.30078125 5.27734375 7.30078125 5.27734375 7.3125 7.9375 C7.32925781 8.81277344 7.34601563 9.68804687 7.36328125 10.58984375 C7 13 7 13 5.73046875 14.81640625 C4 16 4 16 0 16 C0 10.72 0 5.44 0 0 Z " fill="#F2EEF4" transform="translate(72,335)"/>
<path d="M0 0 C0.33 1.65 0.66 3.3 1 5 C-3.43076923 7.09230769 -3.43076923 7.09230769 -6.3125 6.625 C-6.869375 6.41875 -7.42625 6.2125 -8 6 C-6.72879117 2.18637351 -4.19078006 0 0 0 Z " fill="#0C4423" transform="translate(359,284)"/>
<path d="M0 0 C0.33 1.65 0.66 3.3 1 5 C-1.90600261 6.25664978 -3.79604584 7 -7 7 C-7.33 6.01 -7.66 5.02 -8 4 C-2.25 0 -2.25 0 0 0 Z " fill="#05773B" transform="translate(155,321)"/>
<path d="M0 0 C2.475 0.495 2.475 0.495 5 1 C5 2.65 5 4.3 5 6 C3.35 6.33 1.7 6.66 0 7 C0 4.69 0 2.38 0 0 Z " fill="#F6F0F6" transform="translate(257,298)"/>
<path d="M0 0 C0.66 0 1.32 0 2 0 C2.33 2.31 2.66 4.62 3 7 C1.68 7 0.36 7 -1 7 C-0.67 4.69 -0.34 2.38 0 0 Z " fill="#C9D5D1" transform="translate(194,338)"/>
<path d="M0 0 C2.86724686 0.57344937 3.8614515 0.8614515 6 3 C3.625 3.625 3.625 3.625 1 4 C0.34 3.34 -0.32 2.68 -1 2 C-0.67 1.34 -0.34 0.68 0 0 Z " fill="#074C2B" transform="translate(257,306)"/>
<path d="M0 0 C0 0.66 0 1.32 0 2 C-2.875 2.125 -2.875 2.125 -6 2 C-6.66 1.34 -7.32 0.68 -8 0 C-4.94736336 -0.98120464 -3.05263664 -0.98120464 0 0 Z " fill="#CAD6D2" transform="translate(329,253)"/>
<path d="M0 0 C0 0.99 0 1.98 0 3 C0.99 3.66 1.98 4.32 3 5 C0.36 5 -2.28 5 -5 5 C-3.35 3.35 -1.7 1.7 0 0 Z " fill="#064522" transform="translate(398,240)"/>
</svg>
