<?xml version="1.0" encoding="UTF-8"?>
<svg version="1.1" xmlns="http://www.w3.org/2000/svg" width="1260" height="788">
<path d="M0 0 C415.8 0 831.6 0 1260 0 C1260 260.04 1260 520.08 1260 788 C844.2 788 428.4 788 0 788 C0 527.96 0 267.92 0 0 Z " fill="#005321" transform="translate(0,0)"/>
<path d="M0 0 C16.665 -0.0825 33.33 -0.165 50.5 -0.25 C55.73166016 -0.28641602 60.96332031 -0.32283203 66.35351562 -0.36035156 C72.81933594 -0.37841797 72.81933594 -0.37841797 75.86120605 -0.3817749 C77.95303772 -0.38785459 80.04485675 -0.40179034 82.13659668 -0.42230225 C98.31971005 -0.57284706 113.40227584 0.1937304 128 8 C128.91910156 8.46921875 129.83820313 8.9384375 130.78515625 9.421875 C149.7746985 19.71298177 162.86221092 36.4542589 169.375 57 C171.31549927 63.61457143 172.1674537 69.94284647 172.2734375 76.828125 C172.28605621 77.5703833 172.29867493 78.3126416 172.31167603 79.07739258 C172.73355381 109.82509782 172.73355381 109.82509782 167 123 C166.72124023 123.67820801 166.44248047 124.35641602 166.15527344 125.05517578 C158.27737581 143.86005765 144.36958691 158.04400923 126 167 C116.05013804 171.03773632 106.6060638 173.16526885 95.8828125 173.09765625 C95.12218506 173.09664917 94.36155762 173.09564209 93.57788086 173.09460449 C90.76023838 173.08940693 87.94261753 173.07544587 85.125 173.0625 C78.81375 173.041875 72.5025 173.02125 66 173 C66 155.18 66 137.36 66 119 C83.16 119 100.32 119 118 119 C118 97.88 118 76.76 118 55 C97.21 55 76.42 55 55 55 C55 104.5 55 154 55 205 C36.85 205 18.7 205 0 205 C0 137.35 0 69.7 0 0 Z " fill="#FCFDFC" transform="translate(385,221)"/>
<path d="M0 0 C23.76 0 47.52 0 72 0 C75.55183124 9.47154998 79.07393018 18.90795094 82.35546875 28.46875 C82.93081863 30.13655769 82.93081863 30.13655769 83.51779175 31.83805847 C84.74303512 35.39135097 85.96527722 38.94566753 87.1875 42.5 C88.04008422 44.97378278 88.8928689 47.44749648 89.74584961 49.92114258 C93.28484447 60.18784212 96.81667287 70.45698884 100.3359375 80.73046875 C101.02858345 82.75198788 101.72125384 84.77349862 102.41400146 86.79498291 C103.05887058 88.67690824 103.70350821 90.55891288 104.34814453 92.44091797 C107.18378373 100.69439544 110.10607543 108.91410656 113.0625 117.125 C116.85523637 127.66120236 120.4477491 138.25168316 123.94702148 148.88867188 C126.46519246 156.50474776 129.0682791 164.08554472 131.7421875 171.6484375 C132.06336548 172.55819336 132.38454346 173.46794922 132.7154541 174.40527344 C134.31180579 178.92336328 135.91586809 183.43852575 137.53027344 187.95019531 C138.11674483 189.60474387 138.70301742 191.2593629 139.2890625 192.9140625 C139.56354218 193.67310883 139.83802185 194.43215515 140.12081909 195.21420288 C141.35138918 198.70604842 142 201.25230184 142 205 C124.18 205 106.36 205 88 205 C86.02 199.39 84.04 193.78 82 188 C79.94623421 182.32832243 79.94623421 182.32832243 77.8828125 176.66015625 C77 174 77 174 77 172 C53.57 172 30.14 172 6 172 C11.62307692 166.37692308 11.62307692 166.37692308 14.296875 164.359375 C14.86277344 163.92882812 15.42867187 163.49828125 16.01171875 163.0546875 C16.58535156 162.62414062 17.15898438 162.19359375 17.75 161.75 C21.51323481 159.034049 21.51323481 159.034049 25 156 C20.38 155.67 15.76 155.34 11 155 C15.06773989 150.67551913 19.53656263 147.20009737 24.3125 143.6875 C25.05306641 143.13771484 25.79363281 142.58792969 26.55664062 142.02148438 C28.368364 140.67730252 30.18380633 139.33813564 32 138 C27.05 137.67 22.1 137.34 17 137 C22.63475546 131.36524454 22.63475546 131.36524454 25.8828125 128.921875 C26.57503906 128.40109375 27.26726562 127.8803125 27.98046875 127.34375 C28.68816406 126.8178125 29.39585937 126.291875 30.125 125.75 C30.84042969 125.20859375 31.55585937 124.6671875 32.29296875 124.109375 C32.98261719 123.59375 33.67226563 123.078125 34.3828125 122.546875 C35.00559082 122.08120117 35.62836914 121.61552734 36.27001953 121.13574219 C39.16198566 119.23714969 41.64764948 118.87705 45.01171875 118.90234375 C46.14770508 118.90717773 46.14770508 118.90717773 47.30664062 118.91210938 C48.48516602 118.92467773 48.48516602 118.92467773 49.6875 118.9375 C50.48478516 118.94201172 51.28207031 118.94652344 52.10351562 118.95117188 C54.06904257 118.9629415 56.03453085 118.98087652 58 119 C56.56502497 114.66582645 55.1265663 110.33281668 53.6875 106 C53.28337891 104.77925781 52.87925781 103.55851562 52.46289062 102.30078125 C50.65916837 96.87495008 48.8408779 91.47090482 46.79321289 86.13232422 C44.43309848 79.78783691 42.32354217 73.34659135 40.140625 66.93945312 C39.55667969 65.23885742 39.55667969 65.23885742 38.9609375 63.50390625 C38.43185791 61.95425171 38.43185791 61.95425171 37.89208984 60.37329102 C37.21586946 58.07817117 37.21586946 58.07817117 36 57 C29.29248847 75.38810265 22.88207234 93.8679928 16.55513763 112.38933945 C14.27898855 119.04997336 11.99713966 125.70865782 9.71484375 132.3671875 C9.46638954 133.09219893 9.21793533 133.81721035 8.96195221 134.56419182 C4.13031877 148.65953582 -0.77092864 162.72994453 -5.75073242 176.77368164 C-6.00705948 177.49985687 -6.26338654 178.2260321 -6.52748108 178.97421265 C-7.18683349 180.84191173 -7.84933102 182.70849977 -8.51220703 184.57495117 C-10.78878701 191.34603946 -12.86925462 198.18161477 -15 205 C-33.15 205 -51.3 205 -70 205 C-68.26845594 199.22818648 -66.54564329 193.50968432 -64.64453125 187.80078125 C-64.31719498 186.81665756 -64.31719498 186.81665756 -63.98324585 185.81265259 C-63.2615133 183.6453132 -62.53723067 181.47883857 -61.8125 179.3125 C-61.55667145 178.54656525 -61.3008429 177.78063049 -61.03726196 176.9914856 C-48.43853433 139.28280387 -35.50533673 101.69018546 -22.30664062 64.1875 C-17.27390311 49.87183237 -12.39485118 35.50519645 -7.52685547 21.1328125 C-6.46963183 18.01260981 -5.41069338 14.89299321 -4.3515625 11.7734375 C-4.0287027 10.81843353 -3.7058429 9.86342957 -3.37319946 8.87948608 C-2.92670547 7.56508041 -2.92670547 7.56508041 -2.47119141 6.22412109 C-2.07983505 5.06884415 -2.07983505 5.06884415 -1.68057251 3.89022827 C-1 2 -1 2 0 0 Z " fill="#FCFDFD" transform="translate(833,221)"/>
<path d="M0 0 C2.35367345 0.00747672 4.70735321 0.01316287 7.06103516 0.01715088 C13.20293908 0.03229452 19.34445397 0.07147732 25.48620605 0.1159668 C31.7746047 0.15716475 38.06306729 0.17521389 44.3515625 0.1953125 C56.65121094 0.23798401 68.95057289 0.30609615 81.25 0.390625 C81.25 4.020625 81.25 7.650625 81.25 11.390625 C78.4185963 12.21040107 75.58517098 13.02156774 72.75 13.828125 C71.95851563 14.05822266 71.16703125 14.28832031 70.3515625 14.52539062 C65.3098354 15.95112493 60.46491823 16.87032926 55.25 17.390625 C55.25 18.050625 55.25 18.710625 55.25 19.390625 C56.28898438 19.43960938 57.32796875 19.48859375 58.3984375 19.5390625 C66.19835078 19.94421634 73.6188154 20.60206611 81.25 22.390625 C81.25 26.020625 81.25 29.650625 81.25 33.390625 C64.54157175 35.68675256 64.54157175 35.68675256 56.25 35.390625 C56.25 36.050625 56.25 36.710625 56.25 37.390625 C58.07724609 37.78894531 58.07724609 37.78894531 59.94140625 38.1953125 C61.5651294 38.55196845 63.18882591 38.90874574 64.8125 39.265625 C65.61236328 39.43964844 66.41222656 39.61367188 67.23632812 39.79296875 C71.96433941 40.83506103 76.60991592 42.00794223 81.25 43.390625 C81.25 47.020625 81.25 50.650625 81.25 54.390625 C80.04445465 54.39427063 78.8389093 54.39791626 77.59683228 54.40167236 C66.20949092 54.43868929 54.82241831 54.49653533 43.43528175 54.57452774 C37.5816807 54.61395729 31.72822907 54.6461681 25.87451172 54.66162109 C20.22034608 54.67681723 14.56659136 54.71131584 8.9126091 54.75893402 C6.7606095 54.77371724 4.60855122 54.78166425 2.45650101 54.78250885 C-0.56899047 54.78488943 -3.59335635 54.81205739 -6.61865234 54.84472656 C-7.49907196 54.8396962 -8.37949158 54.83466583 -9.28659058 54.82948303 C-18.28512232 54.97882078 -25.75743446 57.74724966 -32.1796875 64.12109375 C-37.43424068 71.71536091 -38.34800171 78.6342611 -38.28125 87.73046875 C-38.2850769 88.89260391 -38.28890381 90.05473907 -38.29284668 91.25209045 C-38.29555672 93.69858674 -38.2882596 96.14511246 -38.27148438 98.59155273 C-38.25008321 102.31365304 -38.27130917 106.03381889 -38.296875 109.75585938 C-38.29423119 112.14323338 -38.2891051 114.5306062 -38.28125 116.91796875 C-38.28934692 118.01930649 -38.29744385 119.12064423 -38.30578613 120.25535583 C-38.20811292 128.39940639 -36.8026186 135.47416786 -31.70703125 142.01171875 C-30.99933594 142.61113281 -30.29164063 143.21054687 -29.5625 143.828125 C-28.86769531 144.44558594 -28.17289063 145.06304687 -27.45703125 145.69921875 C-20.65090315 149.95182116 -13.70763403 150.83593302 -5.82397461 150.82299805 C-4.40285873 150.83828552 -4.40285873 150.83828552 -2.95303345 150.85388184 C0.14725799 150.88383445 3.24723957 150.89325061 6.34765625 150.90234375 C8.50956739 150.91920358 10.6714688 150.93735556 12.83335876 150.95674133 C18.50004029 151.00410569 24.16668237 151.03400277 29.83349609 151.06018066 C35.62540473 151.09005472 41.41717766 151.1365615 47.20898438 151.18164062 C58.55591839 151.2675194 69.90288046 151.33493321 81.25 151.390625 C81.25 154.690625 81.25 157.990625 81.25 161.390625 C73.3346018 164.15540061 65.41399501 166.47990276 57.25 168.390625 C58.92140605 170.06203105 61.08505668 169.85623322 63.37890625 170.14453125 C64.41337891 170.27666016 65.44785156 170.40878906 66.51367188 170.54492188 C67.60228516 170.67962891 68.69089844 170.81433594 69.8125 170.953125 C70.90498047 171.09169922 71.99746094 171.23027344 73.12304688 171.37304688 C75.83155201 171.71604534 78.54071795 172.05381824 81.25 172.390625 C81.25 176.020625 81.25 179.650625 81.25 183.390625 C69.37 185.370625 69.37 185.370625 57.25 187.390625 C65.17 189.700625 73.09 192.010625 81.25 194.390625 C81.25 198.020625 81.25 201.650625 81.25 205.390625 C67.85336256 205.4837573 54.45680355 205.55460801 41.05990696 205.59787369 C34.83759091 205.61865056 28.61549814 205.64678548 22.39331055 205.69238281 C16.376193 205.73619588 10.35928874 205.75983633 4.34202385 205.77013397 C2.05897609 205.77746217 -0.22406146 205.7917702 -2.50701714 205.81354523 C-18.61724232 205.96094075 -34.67772639 205.55687444 -49.1875 197.640625 C-49.84379395 197.29628418 -50.50008789 196.95194336 -51.17626953 196.59716797 C-56.91946373 193.4888037 -61.94105259 189.81518375 -66.75 185.390625 C-67.59046875 184.64167969 -68.4309375 183.89273438 -69.296875 183.12109375 C-75.85648823 176.96897164 -80.45779535 170.26605407 -84.75 162.390625 C-85.245 161.49601563 -85.74 160.60140625 -86.25 159.6796875 C-92.53080221 147.23024027 -93.22216569 133.20628984 -93.18359375 119.515625 C-93.1881775 118.05224369 -93.19348938 116.58886451 -93.19947815 115.12548828 C-93.20831551 112.08682402 -93.20609408 109.04842389 -93.19604492 106.00976562 C-93.18455006 102.16417429 -93.2048224 98.31950067 -93.23396206 94.47402954 C-93.25252429 91.46063698 -93.25199268 88.44745653 -93.24632454 85.434021 C-93.24617385 84.0181957 -93.25200286 82.60235359 -93.26461601 81.18658447 C-93.44827845 57.21192146 -84.87592795 38.91320035 -68.4375 21.703125 C-49.03280217 2.72666877 -25.8503357 -0.24356819 0 0 Z " fill="#FDFDFD" transform="translate(668.75,220.609375)"/>
<path d="M0 0 C22.77 0 45.54 0 69 0 C69 10.56 69 21.12 69 32 C66.03 32 63.06 32 60 32 C60 39.92 60 47.84 60 56 C62.97 56 65.94 56 69 56 C69 63.59 69 71.18 69 79 C66.03 79 63.06 79 60 79 C60 86.92 60 94.84 60 103 C62.97 103 65.94 103 69 103 C69 110.26 69 117.52 69 125 C66.03 125 63.06 125 60 125 C60 132.92 60 140.84 60 149 C62.97 149 65.94 149 69 149 C69 156.59 69 164.18 69 172 C66.03 172 63.06 172 60 172 C60 177.61 60 183.22 60 189 C62.97 189 65.94 189 69 189 C69 194.28 69 199.56 69 205 C46.23 205 23.46 205 0 205 C0 194.44 0 183.88 0 173 C2.97 173 5.94 173 9 173 C9.33 165.08 9.66 157.16 10 149 C6.7 149 3.4 149 0 149 C0 141.41 0 133.82 0 126 C2.97 126 5.94 126 9 126 C9.33 118.08 9.66 110.16 10 102 C6.7 102 3.4 102 0 102 C0 94.41 0 86.82 0 79 C3.3 79 6.6 79 10 79 C10 71.41 10 63.82 10 56 C6.7 56 3.4 56 0 56 C0 48.08 0 40.16 0 32 C3.3 32 6.6 32 10 32 C10 26.72 10 21.44 10 16 C6.7 16 3.4 16 0 16 C0 10.72 0 5.44 0 0 Z " fill="#FCFDFC" transform="translate(283,221)"/>
<path d="M0 0 C0.66 0.99 1.32 1.98 2 3 C2.99 2.67 3.98 2.34 5 2 C8.83982922 1.29684656 12.18056865 1.10415023 16 2 C19.18681166 4.83748808 20.97974379 8.2777141 23 12 C23.65355469 13.07765625 24.30710937 14.1553125 24.98046875 15.265625 C30 23.56137725 30 23.56137725 30 26 C30.66 26 31.32 26 32 26 C32 18.08 32 10.16 32 2 C35.63 2 39.26 2 43 2 C43 15.86 43 29.72 43 44 C39.04 44 35.08 44 31 44 C27.88356872 40.52594546 26.12555196 38.01262736 24 34 C22.69049612 31.7898887 21.37803143 29.58152882 20.0625 27.375 C19.03723905 25.5858633 18.01476261 23.79511197 17 22 C16.96241577 22.99181274 16.96241577 22.99181274 16.92407227 24.00366211 C16.80846898 26.98182305 16.68558246 29.9596392 16.5625 32.9375 C16.52318359 33.97841797 16.48386719 35.01933594 16.44335938 36.09179688 C16.38051758 37.57583008 16.38051758 37.57583008 16.31640625 39.08984375 C16.27974854 40.00628662 16.24309082 40.92272949 16.20532227 41.86694336 C16 44 16 44 15 45 C11.63790935 45.28469316 8.27585999 45.44895063 4.90625 45.62109375 C3.9471875 45.74613281 2.988125 45.87117188 2 46 C1.505 46.99 1.505 46.99 1 48 C1 47.01 1 46.02 1 45 C0.14619751 45.02356567 0.14619751 45.02356567 -0.72485352 45.04760742 C-3.33729874 45.11048439 -5.9495841 45.14915532 -8.5625 45.1875 C-9.45775391 45.21263672 -10.35300781 45.23777344 -11.27539062 45.26367188 C-18.4406928 45.34241146 -23.19521426 44.36848574 -28.8125 39.625 C-33.16001925 34.4079769 -33.36433377 29.59556789 -33.375 23.0625 C-33.39949219 22.27681641 -33.42398438 21.49113281 -33.44921875 20.68164062 C-33.48199934 14.15284022 -31.36980094 10.76476776 -27.125 5.8125 C-21.84635023 1.31012225 -16.91787497 0.51265062 -10.25 0.3125 C-9.48300781 0.27833984 -8.71601562 0.24417969 -7.92578125 0.20898438 C-5.28370965 0.09522207 -2.64478067 0 0 0 Z " fill="#075626" transform="translate(835,456)"/>
<path d="M0 0 C3.63 0 7.26 0 11 0 C12 1 12 1 12.11352539 4.51000977 C12.11336626 6.07048422 12.10767142 7.63096393 12.09765625 9.19140625 C12.0962413 10.01124496 12.09482635 10.83108368 12.09336853 11.67576599 C12.08775289 14.30471382 12.07519779 16.93357773 12.0625 19.5625 C12.05748701 21.34049357 12.05292376 23.11848846 12.04882812 24.89648438 C12.03777839 29.26435545 12.02050331 33.63216348 12 38 C12.66 38 13.32 38 14 38 C13.98952637 37.09757568 13.97905273 36.19515137 13.96826172 35.26538086 C13.93400464 31.89019167 13.90901633 28.51518955 13.89013672 25.13989258 C13.8801315 23.68413359 13.86652304 22.22839443 13.84912109 20.77270508 C13.82462956 18.6700346 13.81346206 16.56763176 13.8046875 14.46484375 C13.79421387 13.202771 13.78374023 11.94069824 13.77294922 10.64038086 C14 7 14 7 16 0 C27.22 0 38.44 0 50 0 C50 2.64 50 5.28 50 8 C46.04 8 42.08 8 38 8 C38 19.55 38 31.1 38 43 C33.71 43 29.42 43 25 43 C25 43.99 25 44.98 25 46 C23.515 46.495 23.515 46.495 22 47 C22.33 49.64 22.66 52.28 23 55 C21.25705322 55.86846831 19.50531337 56.71930627 17.75 57.5625 C16.77546875 58.03816406 15.8009375 58.51382813 14.796875 59.00390625 C11.90143703 60.03510273 10.80033839 60.11346788 8 59 C7.67 57.35 7.34 55.7 7 54 C12.75 50 12.75 50 15 50 C14.65213292 48.02463255 14.65213292 48.02463255 14 46 C13.34 45.67 12.68 45.34 12 45 C12 44.67 12 44.34 12 44 C8.04 43.67 4.08 43.34 0 43 C0 28.81 0 14.62 0 0 Z " fill="#075727" transform="translate(417,458)"/>
<path d="M0 0 C3.96544219 2.35806919 6.08889522 5.64961231 8.06640625 9.79296875 C9.74956157 17.74970298 9.81991738 28.03175419 5.4609375 35.15625 C2.57551127 38.73892576 0.21708133 40.66918798 -4.24609375 42.04296875 C-10.76044852 42.67076014 -17.91627543 43.30682341 -23.24609375 39.04296875 C-26.72792648 34.72168046 -28.92265748 30.64919747 -29.24609375 25.04296875 C-29.30796875 24.14449219 -29.36984375 23.24601562 -29.43359375 22.3203125 C-29.73961118 14.75594426 -29.05116506 8.18582707 -23.75 2.4140625 C-17.04406721 -3.45571907 -7.97281574 -3.43072677 0 0 Z " fill="#F4F8F5" transform="translate(967.24609375,458.95703125)"/>
<path d="M0 0 C4.86664244 4.04805972 7.31358564 8.69356804 8 15 C8.79402235 24.08163064 7.89353053 31.25475967 2 38.4375 C-4.07512157 43.18368873 -10.54913174 42.67117285 -18 42 C-22.35872912 40.78072402 -25.00994081 38.37657433 -27.375 34.5625 C-31.28965979 25.98036123 -31.08814142 16.11894195 -28.1171875 7.234375 C-26.26636879 3.53273758 -23.55373892 1.07110376 -20 -1 C-13.62097732 -3.09231944 -6.08965169 -2.64267904 0 0 Z " fill="#F4F8F5" transform="translate(666,459)"/>
<path d="M0 0 C4.91742503 2.86253432 6.735952 7.14535599 8.5 12.4375 C9.14348604 21.14038492 9.43631986 29.85941875 4.5 37.4375 C-2.02065722 42.89356012 -8.30826963 43.03424857 -16.5 42.4375 C-21.27834904 40.81627443 -23.8156975 38.69535914 -26.5 34.4375 C-30.81845798 24.74413723 -30.09173782 16.25697208 -26.5 6.4375 C-20.94119617 -2.76327875 -9.44899187 -4.10517999 0 0 Z " fill="#F4F9F6" transform="translate(574.5,458.5625)"/>
<path d="M0 0 C4.47217285 2.39691863 6.52872778 5.65024215 8.140625 10.44140625 C10.10235919 19.33271948 9.39039097 28.98449537 4.68359375 36.90234375 C-0.54116086 41.66644714 -7.10049559 42.20648816 -13.84765625 42.1171875 C-18.45824506 41.71594955 -21.24521933 39.94292533 -24.50390625 36.77734375 C-29.4737384 28.89416171 -30.23606544 21.27244459 -28.56640625 12.27734375 C-27.15089484 6.60553596 -24.88867742 3.09726984 -20.19140625 -0.47265625 C-13.77534661 -3.75624994 -6.42728074 -2.8062775 0 0 Z " fill="#F3F7F5" transform="translate(598.31640625,523.09765625)"/>
<path d="M0 0 C4.6209371 2.66082649 6.89459424 6.37128273 8.5625 11.375 C8.73810807 14.28548781 8.83968869 17.15049369 8.875 20.0625 C8.90400391 20.84044922 8.93300781 21.61839844 8.96289062 22.41992188 C9.02520212 28.16695869 7.89144739 32.62195631 4.5625 37.375 C-2.0632398 42.64854801 -8.19388522 43.24219902 -16.4375 42.375 C-20.86056493 41.04309478 -23.45857601 39.02971528 -25.8125 35.05078125 C-29.25076015 26.87297498 -29.98404837 17.4821334 -27.375 8.9375 C-25.50295181 4.70971653 -22.25511907 1.88248162 -18.4375 -0.625 C-12.47744265 -2.61168578 -5.76969281 -2.61371422 0 0 Z " fill="#F4F8F5" transform="translate(741.4375,522.625)"/>
<path d="M0 0 C4.07701467 3.35221206 5.63179576 5.95701711 7 11 C7.74147504 19.12733675 7.65423057 27.54536964 4 35 C-0.55535051 39.92470326 -5.86248983 41.10467835 -12.375 41.4375 C-18.010813 41.32232671 -21.88074254 39.87635285 -26 36 C-30.95421986 28.16913636 -31.26907954 18.44532524 -29.50390625 9.48046875 C-27.68321858 4.10069672 -24.63708476 0.58225086 -19.8125 -2.3125 C-12.77422259 -4.03296781 -6.36540313 -3.61954295 0 0 Z " fill="#F4F8F6" transform="translate(353,524)"/>
<path d="M0 0 C0.89009766 -0.020625 1.78019531 -0.04125 2.69726562 -0.0625 C7.96542625 -0.09374187 11.64069431 0.28500034 16.1875 3.25 C22.14958806 9.54331518 22.58292044 15.34182247 22.43359375 23.73046875 C22.06339622 29.02488111 21.37785595 33.82600608 17.72265625 37.87109375 C13.70619622 41.33762282 11.17904889 42.37663759 5.99609375 42.3828125 C4.96935547 42.38410156 3.94261719 42.38539063 2.88476562 42.38671875 C1.80904297 42.38285156 0.73332031 42.37898437 -0.375 42.375 C-1.45458984 42.37886719 -2.53417969 42.38273438 -3.64648438 42.38671875 C-5.1846582 42.38478516 -5.1846582 42.38478516 -6.75390625 42.3828125 C-7.69951416 42.38168457 -8.64512207 42.38055664 -9.61938477 42.37939453 C-11.8125 42.25 -11.8125 42.25 -12.8125 41.25 C-12.90118299 38.29294679 -12.92770296 35.35934944 -12.91015625 32.40234375 C-12.9087413 31.5159169 -12.90732635 30.62949005 -12.90586853 29.71620178 C-12.90025215 26.87326746 -12.88769691 24.03041069 -12.875 21.1875 C-12.86998711 19.26497509 -12.86542384 17.34244896 -12.86132812 15.41992188 C-12.85027741 10.69658451 -12.83300183 5.97330542 -12.8125 1.25 C-8.54793146 -0.17152285 -4.46754315 0.02554707 0 0 Z " fill="#F3F7F5" transform="translate(685.8125,521.75)"/>
<path d="M0 0 C1.2384668 -0.04350586 1.2384668 -0.04350586 2.50195312 -0.08789062 C8.4668931 -0.14899718 12.80821442 1.0129795 17.8125 4.3125 C22.21929444 8.71929444 22.95675072 14.10626444 23.125 20.125 C22.98204024 27.80670456 21.49830951 34.79392019 15.8125 40.3125 C12.27476156 42.02400657 9.4592234 42.56104865 5.546875 42.54296875 C4.57492187 42.54103516 3.60296875 42.53910156 2.6015625 42.53710938 C1.09722656 42.51874023 1.09722656 42.51874023 -0.4375 42.5 C-1.45585937 42.49935547 -2.47421875 42.49871094 -3.5234375 42.49804688 C-11.04709507 42.45290493 -11.04709507 42.45290493 -12.1875 41.3125 C-12.27618299 38.35544679 -12.30270296 35.42184944 -12.28515625 32.46484375 C-12.2837413 31.5784169 -12.28232635 30.69199005 -12.28086853 29.77870178 C-12.27525215 26.93576746 -12.26269691 24.09291069 -12.25 21.25 C-12.24498711 19.32747509 -12.24042384 17.40494896 -12.23632812 15.48242188 C-12.22527741 10.75908451 -12.20800183 6.03580542 -12.1875 1.3125 C-8.10050724 -0.04983092 -4.28176461 0.04899044 0 0 Z " fill="#F7FAF8" transform="translate(295.1875,521.6875)"/>
<path d="M0 0 C3.30190064 2.7916298 5.25721314 6.35893458 5.98242188 10.57348633 C6.13671014 12.99184761 6.14652259 15.36795966 6.1003418 17.79052734 C6.11581055 18.598125 6.1312793 19.40572266 6.1472168 20.23779297 C6.110069 26.00034477 5.12781887 30.69100498 1.6003418 35.35302734 C-4.1775828 40.06894266 -9.52922599 39.87862829 -16.7746582 39.66552734 C-18.28866211 39.65102539 -18.28866211 39.65102539 -19.83325195 39.63623047 C-27.2309552 39.52173035 -27.2309552 39.52173035 -28.3996582 38.35302734 C-28.48834119 35.39597414 -28.51486116 32.46237678 -28.49731445 29.50537109 C-28.49589951 28.61894424 -28.49448456 27.7325174 -28.49302673 26.81922913 C-28.48741036 23.9762948 -28.47485512 21.13343803 -28.4621582 18.29052734 C-28.45714531 16.36800244 -28.45258204 14.4454763 -28.44848633 12.52294922 C-28.43743561 7.79961185 -28.42016003 3.07633276 -28.3996582 -1.64697266 C-20.15487649 -3.42091757 -7.40276659 -5.05815862 0 0 Z " fill="#F8FBF9" transform="translate(558.399658203125,524.64697265625)"/>
<path d="M0 0 C11 0 11 0 13.328125 1.91796875 C13.87984375 2.93503906 14.4315625 3.95210938 15 5 C15.9278623 6.47805027 16.86060514 7.95304237 17.796875 9.42578125 C18.78542968 11.05215432 19.76899712 12.68156068 20.75 14.3125 C22.4825 17.179375 24.215 20.04625 26 23 C26.33 15.41 26.66 7.82 27 0 C30.63 0 34.26 0 38 0 C38 13.86 38 27.72 38 42 C34.04 42 30.08 42 26 42 C23.29831845 39.23930113 22.11374642 37.68956548 20.5 34.375 C19.71911996 32.9451104 18.93787523 31.51541989 18.15625 30.0859375 C17.83462891 29.4470459 17.51300781 28.8081543 17.18164062 28.14990234 C15.63105064 25.3287256 13.78570111 22.67855167 12 20 C11.67 27.26 11.34 34.52 11 42 C7.37 42 3.74 42 0 42 C0 28.14 0 14.28 0 0 Z " fill="#F8FAF9" transform="translate(302,458)"/>
<path d="M0 0 C11 0 11 0 13.359375 1.765625 C13.81828125 2.58546875 14.2771875 3.4053125 14.75 4.25 C15.28238281 5.15234375 15.81476562 6.0546875 16.36328125 6.984375 C16.90339844 7.97953125 17.44351563 8.9746875 18 10 C18.65355469 11.07765625 19.30710937 12.1553125 19.98046875 13.265625 C25 21.56137725 25 21.56137725 25 24 C25.66 24 26.32 24 27 24 C27 16.08 27 8.16 27 0 C30.63 0 34.26 0 38 0 C38 13.86 38 27.72 38 42 C34.04 42 30.08 42 26 42 C22.88356872 38.52594546 21.12555196 36.01262736 19 32 C17.69049612 29.7898887 16.37803143 27.58152882 15.0625 25.375 C14.051875 23.60125 13.04125 21.8275 12 20 C11.67 27.26 11.34 34.52 11 42 C7.37 42 3.74 42 0 42 C0 28.14 0 14.28 0 0 Z " fill="#F5F9F6" transform="translate(840,458)"/>
<path d="M0 0 C1.81242052 -0.02687279 3.62495233 -0.04633715 5.4375 -0.0625 C6.44683594 -0.07410156 7.45617187 -0.08570313 8.49609375 -0.09765625 C11 0 11 0 12 1 C12.14665606 3.27846058 12.22752965 5.56120652 12.28125 7.84375 C12.30886414 8.87018616 12.30886414 8.87018616 12.33703613 9.9173584 C12.41595245 12.85636295 12.48353283 15.79560536 12.55224609 18.73486328 C12.60387772 20.87544432 12.66116623 23.01582219 12.71875 25.15625 C12.74904297 26.44337891 12.77933594 27.73050781 12.81054688 29.05664062 C12.6675439 31.88761946 12.6675439 31.88761946 14 33 C17 33.16666667 17 33.16666667 20 33 C21.90713656 31.09286344 21.22156811 27.69209524 21.28125 25.15625 C21.29965942 24.47195923 21.31806885 23.78766846 21.33703613 23.0826416 C21.39595139 20.88851741 21.44870184 18.69431474 21.5 16.5 C21.56745861 13.61441066 21.64112613 10.72908175 21.71875 7.84375 C21.76418945 5.91305664 21.76418945 5.91305664 21.81054688 3.94335938 C22 1 22 1 23 0 C24.85287502 -0.07226502 26.70833878 -0.0838122 28.5625 -0.0625 C29.57441406 -0.05347656 30.58632813 -0.04445313 31.62890625 -0.03515625 C32.41136719 -0.02355469 33.19382812 -0.01195312 34 0 C34.07460234 4.42908378 34.12881371 8.8578269 34.16479492 13.28735352 C34.17980722 14.79165017 34.20022353 16.29590361 34.22631836 17.80004883 C34.26303816 19.97227696 34.27980161 22.14392251 34.29296875 24.31640625 C34.3086792 25.62037354 34.32438965 26.92434082 34.34057617 28.26782227 C33.84053317 33.74750502 32.51564125 37.6387909 28.31640625 41.41015625 C24.41635801 43.27979068 21.17119533 43.56004394 16.9375 43.4375 C16.24333984 43.44458984 15.54917969 43.45167969 14.83398438 43.45898438 C10.37404471 43.40392339 7.38090305 42.9590226 4 40 C-1.39896031 32.58102052 -0.45379717 24.259433 -0.25 15.5 C-0.22990494 13.99481542 -0.21165948 12.48960495 -0.1953125 10.984375 C-0.15155298 7.32237263 -0.08269216 3.66135422 0 0 Z " fill="#EEF3F0" transform="translate(471,458)"/>
<path d="M0 0 C1.33514648 -0.04350586 1.33514648 -0.04350586 2.69726562 -0.08789062 C8.37131946 -0.14257017 11.74734269 0.41689029 16.1875 4.3125 C19.52574531 9.80445196 19.64784823 14.24292766 18.1875 20.3125 C16.72437382 24.05160024 15.5977657 25.06968969 12.125 27.125 C7.54089055 28.87601177 3.03033209 28.5115205 -1.8125 28.3125 C-1.8125 32.9325 -1.8125 37.5525 -1.8125 42.3125 C-5.4425 42.3125 -9.0725 42.3125 -12.8125 42.3125 C-12.8125 28.7825 -12.8125 15.2525 -12.8125 1.3125 C-8.54953344 -0.10848885 -4.466483 0.04788938 0 0 Z " fill="#F6FAF8" transform="translate(613.8125,457.6875)"/>
<path d="M0 0 C3.96 0 7.92 0 12 0 C15.22868968 7.8421614 18.05663235 15.77187638 20.75 23.8125 C21.36681641 25.61364258 21.36681641 25.61364258 21.99609375 27.45117188 C22.57810547 29.18657227 22.57810547 29.18657227 23.171875 30.95703125 C23.6992627 32.51901245 23.6992627 32.51901245 24.23730469 34.11254883 C25 37 25 37 25 42 C21.7 42 18.4 42 15 42 C13.515 37.545 13.515 37.545 12 33 C8.04 33 4.08 33 0 33 C-0.66 35.97 -1.32 38.94 -2 42 C-5.63 42 -9.26 42 -13 42 C-12.39969594 36.57860112 -11.08850043 31.79435998 -9.27734375 26.66015625 C-9.01240616 25.89319931 -8.74746857 25.12624237 -8.47450256 24.33604431 C-7.63474324 21.90943157 -6.7862807 19.48597007 -5.9375 17.0625 C-5.36335241 15.40840429 -4.78977887 13.75410921 -4.21679688 12.09960938 C-2.81782552 8.0640704 -1.4110456 4.03133221 0 0 Z " fill="#F4F8F5" transform="translate(425,522)"/>
<path d="M0 0 C3.96 0 7.92 0 12 0 C15.32484183 8.00707321 18.10228085 16.12136082 20.75 24.375 C21.16518894 25.6445887 21.58055256 26.9141203 21.99609375 28.18359375 C22.57810547 29.99150391 22.57810547 29.99150391 23.171875 31.8359375 C23.5234668 32.92438965 23.87505859 34.0128418 24.23730469 35.13427734 C25 38 25 38 25 42 C21.7 42 18.4 42 15 42 C13.515 37.545 13.515 37.545 12 33 C8.04 33 4.08 33 0 33 C-0.495 35.475 -0.495 35.475 -1 38 C-1.66 39.32 -2.32 40.64 -3 42 C-6.3 42 -9.6 42 -13 42 C-12.39969594 36.57860112 -11.08850043 31.79435998 -9.27734375 26.66015625 C-9.01240616 25.89319931 -8.74746857 25.12624237 -8.47450256 24.33604431 C-7.63474324 21.90943157 -6.7862807 19.48597007 -5.9375 17.0625 C-5.36335241 15.40840429 -4.78977887 13.75410921 -4.21679688 12.09960938 C-2.81782552 8.0640704 -1.4110456 4.03133221 0 0 Z " fill="#F5F9F7" transform="translate(500,522)"/>
<path d="M0 0 C3.96 0 7.92 0 12 0 C15.32484183 8.00707321 18.10228085 16.12136082 20.75 24.375 C21.16518894 25.6445887 21.58055256 26.9141203 21.99609375 28.18359375 C22.57810547 29.99150391 22.57810547 29.99150391 23.171875 31.8359375 C23.5234668 32.92438965 23.87505859 34.0128418 24.23730469 35.13427734 C25 38 25 38 25 42 C21.7 42 18.4 42 15 42 C13.515 37.545 13.515 37.545 12 33 C8.04 33 4.08 33 0 33 C-0.12375 34.11375 -0.2475 35.2275 -0.375 36.375 C-1 40 -1 40 -3 42 C-5.3828125 42.1953125 -5.3828125 42.1953125 -8.125 42.125 C-9.03507813 42.10695313 -9.94515625 42.08890625 -10.8828125 42.0703125 C-11.58148437 42.04710937 -12.28015625 42.02390625 -13 42 C-12.58664029 36.41964396 -11.35948799 32.10628816 -9.17578125 26.9765625 C-7.73465293 23.32825758 -6.58115015 19.62523925 -5.4375 15.875 C-3.79704256 10.50645763 -2.0666427 5.22099208 0 0 Z " fill="#F4F8F5" transform="translate(777,522)"/>
<path d="M0 0 C9.57 0 19.14 0 29 0 C29 2.64 29 5.28 29 8 C23.06 8 17.12 8 11 8 C11 10.64 11 13.28 11 16 C16.61 16 22.22 16 28 16 C28 18.97 28 21.94 28 25 C22.72 25 17.44 25 12 25 C12 27.97 12 30.94 12 34 C17.94 34 23.88 34 30 34 C30 36.64 30 39.28 30 42 C20.1 42 10.2 42 0 42 C0 28.14 0 14.28 0 0 Z " fill="#F7FBF8" transform="translate(767,458)"/>
<path d="M0 0 C9.57 0 19.14 0 29 0 C29 2.64 29 5.28 29 8 C23.06 8 17.12 8 11 8 C11 10.64 11 13.28 11 16 C16.61 16 22.22 16 28 16 C28 18.64 28 21.28 28 24 C22.39 24 16.78 24 11 24 C11 27.3 11 30.6 11 34 C17.27 34 23.54 34 30 34 C30 36.64 30 39.28 30 42 C20.1 42 10.2 42 0 42 C0 28.14 0 14.28 0 0 Z " fill="#F9FBFA" transform="translate(844,522)"/>
<path d="M0 0 C9.57 0 19.14 0 29 0 C29 2.64 29 5.28 29 8 C23.06 8 17.12 8 11 8 C11 10.64 11 13.28 11 16 C16.61 16 22.22 16 28 16 C28 18.64 28 21.28 28 24 C22.39 24 16.78 24 11 24 C11 27.3 11 30.6 11 34 C17.27 34 23.54 34 30 34 C30 36.64 30 39.28 30 42 C20.1 42 10.2 42 0 42 C0 28.14 0 14.28 0 0 Z " fill="#F8FBF9" transform="translate(625,522)"/>
<path d="M0 0 C3.63 0 7.26 0 11 0 C13.29998908 5.93155077 15.33015482 11.93051142 17.28588867 17.98266602 C18.17268556 21.25137123 18.17268556 21.25137123 20 24 C20.20681396 23.30849854 20.41362793 22.61699707 20.62670898 21.90454102 C21.56034724 18.78952946 22.49885583 15.67600659 23.4375 12.5625 C23.76298828 11.47388672 24.08847656 10.38527344 24.42382812 9.26367188 C24.73642578 8.22919922 25.04902344 7.19472656 25.37109375 6.12890625 C25.65911865 5.17056885 25.94714355 4.21223145 26.24389648 3.22485352 C27 1 27 1 28 0 C29.68608966 -0.07205511 31.37500659 -0.08386068 33.0625 -0.0625 C33.98160156 -0.05347656 34.90070312 -0.04445313 35.84765625 -0.03515625 C36.55792969 -0.02355469 37.26820313 -0.01195312 38 0 C37.40537823 5.17816455 36.21914167 9.89556274 34.53125 14.83203125 C34.29088013 15.54985275 34.05051025 16.26767426 33.80285645 17.00724792 C33.29796911 18.51155365 32.7902383 20.01490777 32.27978516 21.51733398 C31.49696318 23.82143836 30.72234228 26.12817218 29.94921875 28.43554688 C29.45619674 29.90119903 28.96272324 31.36669941 28.46875 32.83203125 C28.23643677 33.52158401 28.00412354 34.21113678 27.76477051 34.92158508 C26.11848772 39.76302456 26.11848772 39.76302456 25 42 C21.37 42 17.74 42 14 42 C11.06246444 33.99041123 8.21294832 25.95291427 5.42578125 17.88989258 C4.73979842 15.90802671 4.04956381 13.92767008 3.359375 11.94726562 C2.92161334 10.68238219 2.48410359 9.41741155 2.046875 8.15234375 C1.65338867 7.01788818 1.25990234 5.88343262 0.85449219 4.71459961 C0 2 0 2 0 0 Z " fill="#F6F9F7" transform="translate(801,522)"/>
<path d="M0 0 C3.3 0 6.6 0 10 0 C12.80622289 6.71489048 15.12222799 13.42529636 17.16796875 20.41015625 C17.75151384 22.9038255 17.75151384 22.9038255 19 24 C21.64 16.08 24.28 8.16 27 0 C30.3 0 33.6 0 37 0 C36.40537823 5.17816455 35.21914167 9.89556274 33.53125 14.83203125 C33.29088013 15.54985275 33.05051025 16.26767426 32.80285645 17.00724792 C32.29796911 18.51155365 31.7902383 20.01490777 31.27978516 21.51733398 C30.49696318 23.82143836 29.72234228 26.12817218 28.94921875 28.43554688 C28.45619674 29.90119903 27.96272324 31.36669941 27.46875 32.83203125 C27.23643677 33.52158401 27.00412354 34.21113678 26.76477051 34.92158508 C25.11848772 39.76302456 25.11848772 39.76302456 24 42 C20.37 42 16.74 42 13 42 C10.44599274 35.35477735 8.1723663 28.63350104 5.9375 21.875 C5.4105957 20.28751953 5.4105957 20.28751953 4.87304688 18.66796875 C4.20209252 16.64622727 3.53319044 14.62380313 2.86669922 12.60058594 C2.18706101 10.56128842 1.47631034 8.53235561 0.75390625 6.5078125 C0 4 0 4 0 0 Z " fill="#F6FAF8" transform="translate(450,522)"/>
<path d="M0 0 C0.125 5.75 0.125 5.75 -1 8 C-5.62 8 -10.24 8 -15 8 C-15 9.65 -15 11.3 -15 13 C-14.03578125 13.43570312 -13.0715625 13.87140625 -12.078125 14.3203125 C-10.80166991 14.92099725 -9.5256509 15.5226093 -8.25 16.125 C-7.61578125 16.40859375 -6.9815625 16.6921875 -6.328125 16.984375 C-1.76650278 19.17015232 0.54591848 21.41985775 3 26 C3.651794 29.91076402 3.21019695 31.59577511 1.375 35.125 C-1.93808071 39.13557138 -4.41179913 41.70837173 -9.7734375 42.3125 C-15.84161778 42.43478071 -21.20889284 41.78187913 -27 40 C-26.67 37.03 -26.34 34.06 -26 31 C-24.659375 31.33 -23.31875 31.66 -21.9375 32 C-17.83301179 32.92221096 -14.19294357 33.17842313 -10 33 C-9.67 31.02 -9.34 29.04 -9 27 C-10.44632812 26.32904297 -10.44632812 26.32904297 -11.921875 25.64453125 C-13.19822973 25.03450877 -14.47425417 24.42379487 -15.75 23.8125 C-16.38421875 23.52052734 -17.0184375 23.22855469 -17.671875 22.92773438 C-21.806473 20.92503847 -24.51675594 19.01467959 -27 15 C-27.89443905 11.53747828 -27.84367702 8.47461721 -27 5 C-20.30230498 -3.8708833 -9.6267129 -3.34842188 0 0 Z " fill="#F3F8F5" transform="translate(373,459)"/>
<path d="M0 0 C1.5159375 -0.00773437 1.5159375 -0.00773437 3.0625 -0.015625 C6.0703976 0.25636574 8.27306793 0.98678882 11 2.25 C10.67 4.56 10.34 6.87 10 9.25 C8.55367187 9.28867187 8.55367187 9.28867187 7.078125 9.328125 C5.81484375 9.38484375 4.5515625 9.4415625 3.25 9.5 C1.37054687 9.56960938 1.37054687 9.56960938 -0.546875 9.640625 C-4.45256849 10.32986503 -5.64960951 11.12375246 -8 14.25 C-9.77442429 19.57327288 -9.76321486 25.02325256 -7.625 30.25 C-6.33110623 33.32338953 -6.33110623 33.32338953 -4 34.25 C-1.62876754 34.48029956 0.74741943 34.66119942 3.125 34.8125 C4.40632812 34.89628906 5.68765625 34.98007812 7.0078125 35.06640625 C8.48894531 35.15728516 8.48894531 35.15728516 10 35.25 C10 37.89 10 40.53 10 43.25 C6.42687005 44.44104332 3.45446678 44.45528823 -0.3125 44.5 C-1.60800781 44.52578125 -2.90351562 44.5515625 -4.23828125 44.578125 C-8.87875571 44.17334841 -12.14591394 42.93757833 -15.609375 39.78515625 C-21.77688654 31.82230745 -21.77473838 25.00201932 -21 15.25 C-19.4403195 9.23282354 -16.01225569 5.7278917 -11 2.25 C-7.21828743 0.4261049 -4.18582518 -0.02135625 0 0 Z " fill="#F4F8F5" transform="translate(924,456.75)"/>
<path d="M0 0 C-0.875 5.875 -0.875 5.875 -2 7 C-3.91757545 6.94117867 -5.83427852 6.85279481 -7.75 6.75 C-12.8616727 6.66395513 -12.8616727 6.66395513 -17.1875 9.375 C-20.54523882 14.23793208 -20.50330933 18.18590943 -20 24 C-19.26830017 26.65122407 -18.34774241 28.56369641 -17 31 C-14.0384304 32.4807848 -11.16493705 32.35314037 -7.875 32.5625 C-6.59367188 32.64628906 -5.31234375 32.73007812 -3.9921875 32.81640625 C-2.51105469 32.90728516 -2.51105469 32.90728516 -1 33 C-0.90234375 39.15234375 -0.90234375 39.15234375 -1 41 C-3.01033194 43.01033194 -6.88039014 42.23043059 -9.625 42.25 C-10.32496094 42.270625 -11.02492188 42.29125 -11.74609375 42.3125 C-18.20192056 42.36040966 -22.78259302 40.87247701 -27.8125 36.625 C-32.16001925 31.4079769 -32.36433377 26.59556789 -32.375 20.0625 C-32.39949219 19.27681641 -32.42398438 18.49113281 -32.44921875 17.68164062 C-32.48199934 11.15284022 -30.36980094 7.76476776 -26.125 2.8125 C-18.14855827 -3.99093559 -9.4515671 -2.80046432 0 0 Z " fill="#F4F8F5" transform="translate(834,459)"/>
<path d="M0 0 C-0.33 2.31 -0.66 4.62 -1 7 C-1.88042969 6.94199219 -2.76085937 6.88398437 -3.66796875 6.82421875 C-10.9068008 6.35435899 -10.9068008 6.35435899 -17.25 9.3125 C-20.14253798 13.7546119 -20.53434549 17.81684876 -20 23 C-19.17543973 26.09689495 -18.1279301 28.9921864 -17 32 C-11.72 32.33 -6.44 32.66 -1 33 C-1 35.64 -1 38.28 -1 41 C-6.52284437 43.76142218 -15.78708863 42.75949124 -21.5625 40.875 C-26.42127654 38.22475825 -28.98962125 35.50274028 -31.10546875 30.26171875 C-32.90571026 23.69751936 -33.39611979 15.85952124 -31.0546875 9.38671875 C-23.94361373 -2.48743274 -12.36695046 -4.30154799 0 0 Z " fill="#F2F7F4" transform="translate(409,523)"/>
<path d="M0 0 C11.22 0 22.44 0 34 0 C34 2.64 34 5.28 34 8 C30.37 8 26.74 8 23 8 C23 19.55 23 31.1 23 43 C19.37 43 15.74 43 12 43 C11 42 11 42 10.88647461 38.76538086 C10.88663369 37.33185874 10.89232593 35.89833088 10.90234375 34.46484375 C10.9037587 33.71159317 10.90517365 32.95834259 10.90663147 32.18226624 C10.91224624 29.7673044 10.92480117 27.35243399 10.9375 24.9375 C10.9425131 23.30403779 10.94707634 21.67057414 10.95117188 20.03710938 C10.96222046 16.02470415 10.97949494 12.01236759 11 8 C7.37 8 3.74 8 0 8 C0 5.36 0 2.72 0 0 Z " fill="#F3F8F4" transform="translate(378,458)"/>
<path d="M0 0 C11.55 0 23.1 0 35 0 C35 2.64 35 5.28 35 8 C31.04 8 27.08 8 23 8 C23 19.22 23 30.44 23 42 C19.37 42 15.74 42 12 42 C12 30.78 12 19.56 12 8 C8.04 8 4.08 8 0 8 C0 5.36 0 2.72 0 0 Z " fill="#FAFCFA" transform="translate(728,458)"/>
<path d="M0 0 C4.82380802 -0.0246519 9.64757967 -0.04283693 14.47143555 -0.05493164 C16.11369464 -0.05997174 17.75594923 -0.06680378 19.39819336 -0.07543945 C21.75375479 -0.08751926 24.10925709 -0.09323139 26.46484375 -0.09765625 C27.20339096 -0.10281754 27.94193817 -0.10797882 28.7028656 -0.11329651 C30.46898088 -0.1134925 32.23497146 -0.06194719 34 0 C35 1 35 1 35.125 4 C35 7 35 7 34 8 C30.37 8 26.74 8 23 8 C23 19.22 23 30.44 23 42 C19.37 42 15.74 42 12 42 C12 30.78 12 19.56 12 8 C8.04 8 4.08 8 0 8 C0 5.36 0 2.72 0 0 Z " fill="#FCFDFC" transform="translate(509,458)"/>
<path d="M0 0 C11.22 0 22.44 0 34 0 C34 2.64 34 5.28 34 8 C30.04 8 26.08 8 22 8 C22 19.22 22 30.44 22 42 C18.37 42 14.74 42 11 42 C11 30.78 11 19.56 11 8 C7.37 8 3.74 8 0 8 C0 5.36 0 2.72 0 0 Z " fill="#FBFDFC" transform="translate(433,458)"/>
<path d="M0 0 C3.63 0 7.26 0 11 0 C11 11.22 11 22.44 11 34 C16.61 34 22.22 34 28 34 C28 36.64 28 39.28 28 42 C18.76 42 9.52 42 0 42 C0 28.14 0 14.28 0 0 Z " fill="#FCFDFC" transform="translate(680,458)"/>
<path d="M0 0 C3.63 0 7.26 0 11 0 C11 13.86 11 27.72 11 42 C7.04 42 3.08 42 -1 42 C-1.02464638 36.17928378 -1.0428343 30.35859766 -1.05493164 24.5378418 C-1.05997267 22.55606559 -1.06680538 20.57429311 -1.07543945 18.5925293 C-1.08751515 15.75047891 -1.09323045 12.90847753 -1.09765625 10.06640625 C-1.10281754 9.17474258 -1.10797882 8.28307892 -1.11329651 7.36439514 C-1.11349177 5.24259399 -1.0621003 3.1208922 -1 1 C-0.67 0.67 -0.34 0.34 0 0 Z " fill="#FDFDFD" transform="translate(713,458)"/>
<path d="M0 0 C20.79 0 41.58 0 63 0 C63 21.12 63 42.24 63 64 C45.84 64 28.68 64 11 64 C11 63.67 11 63.34 11 63 C33.77 62.505 33.77 62.505 57 62 C56.98259766 55.86277344 56.98259766 55.86277344 56.96484375 49.6015625 C56.95841499 46.34381135 56.9529914 43.08606198 56.94824982 39.82830811 C56.94296424 36.38682792 56.93589829 32.94537227 56.92456055 29.50390625 C56.91163965 25.55729465 56.90676748 21.61069316 56.90234375 17.6640625 C56.89718246 16.42757965 56.89202118 15.1910968 56.88670349 13.91714478 C56.88662796 12.77611298 56.88655243 11.63508118 56.88647461 10.45947266 C56.884254 9.451315 56.88203339 8.44315735 56.87974548 7.40444946 C57 5 57 5 58 3 C55.4231359 1.71156795 53.51781241 1.83996567 50.63232422 1.79467773 C48.95080765 1.7647599 48.95080765 1.7647599 47.23532104 1.73423767 C45.41340744 1.70916893 45.41340744 1.70916893 43.5546875 1.68359375 C42.31453888 1.66281265 41.07439026 1.64203156 39.79666138 1.62062073 C36.49888177 1.56622295 33.2010728 1.51599905 29.90319824 1.46777344 C26.53827347 1.41754766 23.1734395 1.36186723 19.80859375 1.30664062 C13.20580146 1.19938443 6.60294128 1.09762811 0 1 C0 0.67 0 0.34 0 0 Z " fill="#095528" transform="translate(440,276)"/>
<path d="M0 0 C3.63 0 7.26 0 11 0 C11 13.86 11 27.72 11 42 C7.37 42 3.74 42 0 42 C0 28.14 0 14.28 0 0 Z " fill="#FBFCFC" transform="translate(283,458)"/>
<path d="M0 0 C3.63 0 7.26 0 11 0 C11 13.86 11 27.72 11 42 C7.37 42 3.74 42 0 42 C0 28.14 0 14.28 0 0 Z " fill="#F8FBF9" transform="translate(885,458)"/>
<path d="M0 0 C3.63 0 7.26 0 11 0 C11 13.86 11 27.72 11 42 C7.37 42 3.74 42 0 42 C0 28.14 0 14.28 0 0 Z " fill="#FBFDFC" transform="translate(417,458)"/>
<path d="M0 0 C3.63 0 7.26 0 11 0 C11 10.89 11 21.78 11 33 C9.35 33.66 7.7 34.32 6 35 C6 35.66 6 36.32 6 37 C4.515 37.495 4.515 37.495 3 38 C0.2271392 33.27302391 -0.35839768 29.86647303 -0.29296875 24.4140625 C-0.28872391 23.71227875 -0.28447906 23.010495 -0.28010559 22.28744507 C-0.26343599 20.0662244 -0.22580872 17.84594212 -0.1875 15.625 C-0.17243788 14.11069027 -0.15875216 12.59636619 -0.14648438 11.08203125 C-0.11357183 7.38772068 -0.06187259 3.69395207 0 0 Z " fill="#FAFCFA" transform="translate(471,458)"/>
<path d="M0 0 C2.475 0.99 2.475 0.99 5 2 C4.27103516 2.83724609 4.27103516 2.83724609 3.52734375 3.69140625 C1.76523059 6.35485606 1.5673711 7.77615534 1.5625 10.9375 C1.54316406 11.77152344 1.52382813 12.60554688 1.50390625 13.46484375 C2.18883617 16.96499745 3.4784447 18.48250518 6 21 C8.32475242 22.48630578 10.74608931 23.65978502 13.25 24.8125 C13.8996875 25.12380859 14.549375 25.43511719 15.21875 25.75585938 C16.80721971 26.51505446 18.40291263 27.25910519 20 28 C19.125 33.875 19.125 33.875 18 35 C12.09133053 35.49238912 7.49901323 34.09486218 2 32 C1.67 34.64 1.34 37.28 1 40 C0.01 40 -0.98 40 -2 40 C-3.47712785 37.0457443 -3.12989998 34.38739796 -3.1328125 31.09375 C-3.13376923 30.41324585 -3.13472595 29.7327417 -3.13571167 29.03161621 C-3.13639231 27.59252836 -3.13454607 26.15343743 -3.13037109 24.71435547 C-3.12502115 22.50871907 -3.13031991 20.3032863 -3.13671875 18.09765625 C-3.13605795 16.70052038 -3.13477674 15.30338464 -3.1328125 13.90625 C-3.13168457 12.63072266 -3.13055664 11.35519531 -3.12939453 10.04101562 C-3 7 -3 7 -2 5 C-2.39938767 2.90178785 -2.39938767 2.90178785 -3 1 C-2.01 1.33 -1.02 1.66 0 2 C0 1.34 0 0.68 0 0 Z " fill="#095628" transform="translate(345,458)"/>
<path d="M0 0 C3.6875 0.3125 3.6875 0.3125 6.0625 2.0625 C9.5925974 6.95032716 9.23758313 12.74946152 8.34375 18.5390625 C7.15159574 24.00310284 7.15159574 24.00310284 3.6875 26.3125 C0.1875 26.6875 0.1875 26.6875 -3.3125 26.3125 C-6.44992203 23.38423944 -7.15251428 20.1492591 -7.515625 15.98046875 C-7.62373858 10.25945832 -7.00756253 6.37921757 -4.3125 1.3125 C-3.3125 0.3125 -3.3125 0.3125 0 0 Z " fill="#0B582A" transform="translate(956.3125,465.6875)"/>
<path d="M0 0 C2.0078125 0.42578125 2.0078125 0.42578125 3.73828125 1.8828125 C5.63892937 5.68995689 5.48219499 9.22788331 5.4453125 13.42578125 C5.46529297 14.23273437 5.48527344 15.0396875 5.50585938 15.87109375 C5.50269628 19.70476037 5.47029885 21.77609804 3.203125 24.9609375 C0.01716776 27.08679865 -2.25367174 26.90159235 -5.9921875 26.42578125 C-8.09382025 25.02469275 -8.77274884 24.10109599 -9.546875 21.71875 C-10.11678352 18.78422104 -10.20072303 15.97717834 -10.2421875 12.98828125 C-10.26796875 11.87582031 -10.29375 10.76335938 -10.3203125 9.6171875 C-9.56868147 2.30668091 -6.824158 0.36513023 0 0 Z " fill="#075526" transform="translate(733.9921875,529.57421875)"/>
<path d="M0 0 C1.87109375 0.328125 1.87109375 0.328125 3.80859375 1.640625 C6.93702997 6.60931782 6.30043349 12.68849281 5.87109375 18.328125 C5.06025124 21.26805092 4.0773547 24.12186405 1.87109375 26.328125 C-5.42820397 26.91677804 -5.42820397 26.91677804 -7.86328125 24.87109375 C-9.75893141 21.06224112 -9.56422717 17.52377979 -9.50390625 13.328125 C-9.51550781 12.52117188 -9.52710938 11.71421875 -9.5390625 10.8828125 C-9.52177021 7.38976915 -9.43900469 4.94546822 -7.85546875 1.79296875 C-5.22677051 -0.43726165 -3.31500631 -0.17031225 0 0 Z " fill="#055525" transform="translate(590.12890625,529.671875)"/>
<path d="M0 0 C1.2375 -0.103125 2.475 -0.20625 3.75 -0.3125 C4.79414063 -0.39951172 4.79414063 -0.39951172 5.859375 -0.48828125 C8 0 8 0 10.2421875 2.08203125 C12.39824956 5.66109427 12.47342004 7.84846364 12.375 12 C12.36210937 13.19625 12.34921875 14.3925 12.3359375 15.625 C11.90110593 19.99354047 11.12412972 22.87587028 8 26 C1.77205882 26.56617647 1.77205882 26.56617647 -0.875 24.625 C-3.38151594 21.00447697 -3.19848075 18.12913637 -3.25 13.75 C-3.27578125 12.44546875 -3.3015625 11.1409375 -3.328125 9.796875 C-2.9843657 5.81908881 -2.01249023 3.41064134 0 0 Z " fill="#075526" transform="translate(337,530)"/>
<path d="M0 0 C3.27099704 2.93551017 3.85850131 4.73133559 4.34375 9.08203125 C4.50942039 15.12209741 4.49886963 19.96162773 1 25 C0 26 0 26 -1.84765625 26.09765625 C-3.8984375 26.06510417 -5.94921875 26.03255208 -8 26 C-11.87148721 17.92037451 -12.91675731 11.60443406 -10 3 C-7.63034559 -0.99099691 -4.30523157 -0.67977341 0 0 Z " fill="#095729" transform="translate(568,466)"/>
<path d="M0 0 C2.47114601 1.66378603 3.79871087 2.97234575 4.38232422 5.9519043 C4.53967925 8.31403547 4.54536886 10.63325764 4.5 13 C4.51546875 13.80695313 4.5309375 14.61390625 4.546875 15.4453125 C4.52160877 19.27314583 4.45928861 21.35719434 2.19140625 24.53125 C-1.01646356 26.68126613 -3.23549822 26.5475639 -7 26 C-10.21996254 22.99470163 -10.86740564 19.68802814 -11.203125 15.4140625 C-11.29641604 9.86324575 -11.25015317 5.75022386 -8 1 C-5.15916359 -0.42041821 -3.14522722 -0.31452272 0 0 Z " fill="#095728" transform="translate(658,466)"/>
<path d="M0 0 C3.17875113 1.58937556 3.31421637 4.29359197 4.41796875 7.58984375 C4.63947098 8.2495668 4.86097321 8.90928986 5.08918762 9.58900452 C5.55590822 10.98576088 6.01883554 12.38378957 6.47827148 13.78295898 C7.18465664 15.92886225 7.9068539 18.06897091 8.63085938 20.20898438 C9.08169145 21.56478457 9.53159283 22.92089466 9.98046875 24.27734375 C10.59764771 26.13734009 10.59764771 26.13734009 11.22729492 28.03491211 C12 31 12 31 11 33 C10.01 31.35 9.02 29.7 8 28 C7.67 28.99 7.34 29.98 7 31 C6.67 30.67 6.34 30.34 6 30 C5.01 32.475 5.01 32.475 4 35 C3.34 35 2.68 35 2 35 C2 36.98 2 38.96 2 41 C0.515 41.495 0.515 41.495 -1 42 C-1 41.34 -1 40.68 -1 40 C-3.31 40 -5.62 40 -8 40 C-8 39.67 -8 39.34 -8 39 C-5.03 39 -2.06 39 1 39 C0.76289307 38.24380371 0.52578613 37.48760742 0.28149414 36.70849609 C-0.7956044 33.26526465 -1.86660621 29.820166 -2.9375 26.375 C-3.31068359 25.18519531 -3.68386719 23.99539063 -4.06835938 22.76953125 C-4.60493164 21.03896484 -4.60493164 21.03896484 -5.15234375 19.2734375 C-5.48226318 18.21560059 -5.81218262 17.15776367 -6.15209961 16.06787109 C-6.98492424 13.05454708 -7.54428296 10.09077421 -8 7 C-7.67 7.99 -7.34 8.98 -7 10 C-6.401875 9.505 -5.80375 9.01 -5.1875 8.5 C-3 7 -3 7 0 7 C0 4.69 0 2.38 0 0 Z " fill="#0A5628" transform="translate(801,525)"/>
<path d="M0 0 C8 0 8 0 10.4375 1.75 C13.78007063 6.5633017 13.50032647 12.33558961 13 18 C11.81001577 21.33195585 11.00099604 23.24062369 8.1875 25.375 C6 26 6 26 0 26 C0 17.42 0 8.84 0 0 Z " fill="#055425" transform="translate(294,530)"/>
<path d="M0 0 C2.73246354 2.73246354 3.36463768 5.88614799 4.4375 9.5 C4.65559326 10.21671875 4.87368652 10.9334375 5.09838867 11.671875 C5.73830044 13.77948519 6.36990493 15.88943764 7 18 C7.32742188 19.0828125 7.65484375 20.165625 7.9921875 21.28125 C8.66741004 23.51913041 9.33722193 25.75840912 10 28 C9.34 28 8.68 28 8 28 C8 27.34 8 26.68 8 26 C7.34 26 6.68 26 6 26 C6.33 26.99 6.66 27.98 7 29 C6.01 29 5.02 29 4 29 C3.67 28.34 3.34 27.68 3 27 C2.01 26.67 1.02 26.34 0 26 C0.350625 26.66 0.70125 27.32 1.0625 28 C2.32853409 32.0513091 1.70614482 34.83374555 1 39 C-2.3 39 -5.6 39 -9 39 C-9 38.67 -9 38.34 -9 38 C-6.03 38 -3.06 38 0 38 C-2.8150988 28.21303948 -5.76346338 18.50785857 -9.08203125 8.87890625 C-10 6 -10 6 -10 4 C-9.34 4 -8.68 4 -8 4 C-7.34 5.32 -6.68 6.64 -6 8 C-5.34 7.34 -4.68 6.68 -4 6 C-3.34 6 -2.68 6 -2 6 C-1.34 4.02 -0.68 2.04 0 0 Z " fill="#0B5829" transform="translate(450,526)"/>
<path d="M0 0 C7 0 7 0 9.90625 2.03125 C12.54784972 5.77680184 12.60915616 7.95182673 12.5 12.5 C12.4896875 13.7890625 12.479375 15.078125 12.46875 16.40625 C11.98678806 20.10129152 11.23839976 22.05935718 9 25 C7 26 7 26 0 26 C0 17.42 0 8.84 0 0 Z " fill="#0A5729" transform="translate(541,530)"/>
<path d="M0 0 C7 0 7 0 9.375 1.875 C12.13163682 5.47983277 12.18861398 7.79551203 12.25 12.3125 C12.28867187 14.00826172 12.28867187 14.00826172 12.328125 15.73828125 C11.96571811 19.34077832 11.17090973 21.13419627 9 24 C6 26 6 26 0 26 C0 17.42 0 8.84 0 0 Z " fill="#045424" transform="translate(685,530)"/>
<path d="M0 0 C1.60725635 3.21451269 1.05748185 6.43612536 1 10 C4.63 10 8.26 10 12 10 C12 10.66 12 11.32 12 12 C11.31292969 12.04898437 10.62585938 12.09796875 9.91796875 12.1484375 C9.01691406 12.22320312 8.11585938 12.29796875 7.1875 12.375 C6.29417969 12.44460938 5.40085937 12.51421875 4.48046875 12.5859375 C1.75601501 12.86645036 1.75601501 12.86645036 -1 15 C-1.66 14.01 -2.32 13.02 -3 12 C-3.33 13.65 -3.66 15.3 -4 17 C-3.01 17.33 -2.02 17.66 -1 18 C-1.33 18.66 -1.66 19.32 -2 20 C-2.66 19.67 -3.32 19.34 -4 19 C-3.34 20.65 -2.68 22.3 -2 24 C-6.18678194 24 -9.11522797 21.97458921 -12.6875 20 C-13.38939453 19.6184375 -14.09128906 19.236875 -14.81445312 18.84375 C-16.54601247 17.90140478 -18.27341426 16.95142732 -20 16 C-20.042721 14.33388095 -20.04063832 12.66617115 -20 11 C-19 10 -19 10 -16.85546875 9.8671875 C-15.97503906 9.86976563 -15.09460938 9.87234375 -14.1875 9.875 C-13.31480469 9.87242187 -12.44210937 9.86984375 -11.54296875 9.8671875 C-9.21345785 9.98885166 -7.23061985 10.34485291 -5 11 C-4.67 8.36 -4.34 5.72 -4 3 C-6.31 2.67 -8.62 2.34 -11 2 C-7.36576791 -0.32590854 -4.22911669 -0.16265833 0 0 Z " fill="#0E582B" transform="translate(377,456)"/>
<path d="M0 0 C5.94 0 11.88 0 18 0 C17.01 0.99 16.02 1.98 15 3 C16.98 2.01 18.96 1.02 21 0 C20.67 1.65 20.34 3.3 20 5 C20.99 5 21.98 5 23 5 C23.33 5 23.66 5 24 5 C24 9.95 24 14.9 24 20 C23.01 19.01 22.02 18.02 21 17 C19.68 17 18.36 17 17 17 C17 14.03 17 11.06 17 8 C11.39 8 5.78 8 0 8 C0 5.36 0 2.72 0 0 Z " fill="#155E33" transform="translate(778,466)"/>
<path d="M0 0 C11.55 0 23.1 0 35 0 C35 2.64 35 5.28 35 8 C31.04 8 27.08 8 23 8 C23 7.67 23 7.34 23 7 C27.455 6.505 27.455 6.505 32 6 C31.13197754 6.00523682 30.26395508 6.01047363 29.36962891 6.01586914 C26.15299727 6.03289862 22.93638859 6.04544408 19.71972656 6.05493164 C18.32681523 6.0599643 16.9339092 6.06679098 15.54101562 6.07543945 C13.54038754 6.08755152 11.53972112 6.09270412 9.5390625 6.09765625 C8.33459473 6.10289307 7.13012695 6.10812988 5.88916016 6.11352539 C3 6 3 6 1 5 C0.67 5.99 0.34 6.98 0 8 C0 5.36 0 2.72 0 0 Z " fill="#F2F7F4" transform="translate(728,458)"/>
<path d="M0 0 C4.82380802 -0.0246519 9.64757967 -0.04283693 14.47143555 -0.05493164 C16.11369464 -0.05997174 17.75594923 -0.06680378 19.39819336 -0.07543945 C21.75375479 -0.08751926 24.10925709 -0.09323139 26.46484375 -0.09765625 C27.20339096 -0.10281754 27.94193817 -0.10797882 28.7028656 -0.11329651 C30.46898088 -0.1134925 32.23497146 -0.06194719 34 0 C35 1 35 1 35.125 4 C35 7 35 7 34 8 C32.31391034 8.07205511 30.62499341 8.08386068 28.9375 8.0625 C28.01839844 8.05347656 27.09929688 8.04445313 26.15234375 8.03515625 C25.44207031 8.02355469 24.73179687 8.01195312 24 8 C24 7.67 24 7.34 24 7 C25.65 6.67 27.3 6.34 29 6 C29 5.67 29 5.34 29 5 C19.76 5 10.52 5 1 5 C1 5.66 1 6.32 1 7 C4.63 7 8.26 7 12 7 C12 7.33 12 7.66 12 8 C8.04 8 4.08 8 0 8 C0 5.36 0 2.72 0 0 Z " fill="#F3F8F5" transform="translate(509,458)"/>
<path d="M0 0 C0.99 0.66 1.98 1.32 3 2 C3.66 1.67 4.32 1.34 5 1 C6.01224724 4.14921364 5.7894781 5.8478687 5 9 C4.92233916 10.44098431 4.89203633 11.88508629 4.90234375 13.328125 C4.90556641 14.12734375 4.90878906 14.9265625 4.91210938 15.75 C4.92048828 16.575 4.92886719 17.4 4.9375 18.25 C4.94201172 19.09046875 4.94652344 19.9309375 4.95117188 20.796875 C4.96292039 22.86461401 4.98085478 24.93231624 5 27 C4.01 27 3.02 27 2 27 C2 26.34 2 25.68 2 25 C1.34 25.33 0.68 25.66 0 26 C0 27.65 0 29.3 0 31 C0.66 31.33 1.32 31.66 2 32 C0.515 32.495 0.515 32.495 -1 33 C-1 32.34 -1 31.68 -1 31 C-1.99 31 -2.98 31 -4 31 C-3.855625 30.41734375 -3.71125 29.8346875 -3.5625 29.234375 C-1.4862776 20.06439275 -0.74398436 10.95404301 -4 2 C-3.01 2 -2.02 2 -1 2 C-0.67 1.34 -0.34 0.68 0 0 Z " fill="#0C582A" transform="translate(319,527)"/>
<path d="M0 0 C5.61 0 11.22 0 17 0 C16.34 0.66 15.68 1.32 15 2 C15.495 2.5775 15.99 3.155 16.5 3.75 C18 6 18 6 18 10 C12.06 10 6.12 10 0 10 C0 6.7 0 3.4 0 0 Z " fill="#226A3E" transform="translate(636,546)"/>
<path d="M0 0 C3.63 0 7.26 0 11 0 C11 13.86 11 27.72 11 42 C10.67 42 10.34 42 10 42 C10 28.47 10 14.94 10 1 C9.01 1 8.02 1 7 1 C6.67 2.32 6.34 3.64 6 5 C4.35 5 2.7 5 1 5 C1.33 17.21 1.66 29.42 2 42 C1.01 42 0.02 42 -1 42 C-1.02464638 36.17928378 -1.0428343 30.35859766 -1.05493164 24.5378418 C-1.05997267 22.55606559 -1.06680538 20.57429311 -1.07543945 18.5925293 C-1.08751515 15.75047891 -1.09323045 12.90847753 -1.09765625 10.06640625 C-1.10281754 9.17474258 -1.10797882 8.28307892 -1.11329651 7.36439514 C-1.11349177 5.24259399 -1.0621003 3.1208922 -1 1 C-0.67 0.67 -0.34 0.34 0 0 Z " fill="#D5E2DB" transform="translate(713,458)"/>
<path d="M0 0 C3.76959644 3.76959644 6.13420954 7.12236676 8.8125 11.625 C9.23208984 12.305625 9.65167969 12.98625 10.08398438 13.6875 C11.12304523 15.41983869 12.069825 17.20684097 13 19 C12.67 19.66 12.34 20.32 12 21 C11.01 20.34 10.02 19.68 9 19 C9 18.34 9 17.68 9 17 C8.34 17 7.68 17 7 17 C7 17.66 7 18.32 7 19 C4.71938966 21.85076293 3.78319482 22.05420129 0 23 C0 15.41 0 7.82 0 0 Z " fill="#075525" transform="translate(851,477)"/>
<path d="M0 0 C1.5625 2.8125 1.5625 2.8125 3 6 C2.67 6.99 2.34 7.98 2 9 C-0.3984375 10.16796875 -0.3984375 10.16796875 -3.375 11.1875 C-4.35210938 11.53167969 -5.32921875 11.87585938 -6.3359375 12.23046875 C-9 13 -9 13 -12 13 C-12.33 11.02 -12.66 9.04 -13 7 C-11.54261898 6.01941648 -10.08406325 5.04057868 -8.625 4.0625 C-7.81289063 3.51722656 -7.00078125 2.97195313 -6.1640625 2.41015625 C-2.46537396 0 -2.46537396 0 0 0 Z " fill="#EDF5F0" transform="translate(788,441)"/>
<path d="M0 0 C0.99 0.33 1.98 0.66 3 1 C4.1875 4.5625 4.1875 4.5625 5 8 C3.25705322 8.86846831 1.50531337 9.71930627 -0.25 10.5625 C-1.22453125 11.03816406 -2.1990625 11.51382813 -3.203125 12.00390625 C-6.09856297 13.03510273 -7.19966161 13.11346788 -10 12 C-10.33 10.35 -10.66 8.7 -11 7 C-9.23754778 5.8000962 -7.46473019 4.61540483 -5.6875 3.4375 C-4.70136719 2.77621094 -3.71523438 2.11492187 -2.69921875 1.43359375 C-1.80847656 0.96050781 -0.91773438 0.48742187 0 0 Z " fill="#EAF2ED" transform="translate(435,505)"/>
<path d="M0 0 C0.33 0 0.66 0 1 0 C1.33 2.97 1.66 5.94 2 9 C2.66 9 3.32 9 4 9 C4.33 8.34 4.66 7.68 5 7 C5.99 12.28 6.98 17.56 8 23 C6.35 22.67 4.7 22.34 3 22 C1.1645201 23.33378575 1.1645201 23.33378575 0 25 C-0.99 24.34 -1.98 23.68 -3 23 C-2.690625 21.80375 -2.38125 20.6075 -2.0625 19.375 C-0.62245192 12.99180815 -0.35230768 6.51769209 0 0 Z " fill="#125B2F" transform="translate(708,535)"/>
<path d="M0 0 C-0.33 0.61875 -0.66 1.2375 -1 1.875 C-2.14193235 3.91018344 -2.14193235 3.91018344 -2 6 C-1.01 6.33 -0.02 6.66 1 7 C-3.35824411 8.35205854 -6.83412471 7.28407365 -11.125 6.125 C-11.85332031 5.93808594 -12.58164062 5.75117188 -13.33203125 5.55859375 C-18.660111 4.1699445 -18.660111 4.1699445 -21 3 C-21 2.34 -21 1.68 -21 1 C-18.25091555 0.63685675 -15.50116549 0.28419159 -12.75 -0.0625 C-11.97269531 -0.16626953 -11.19539062 -0.27003906 -10.39453125 -0.37695312 C-9.64042969 -0.47041016 -8.88632812 -0.56386719 -8.109375 -0.66015625 C-7.41811523 -0.74918213 -6.72685547 -0.83820801 -6.01464844 -0.92993164 C-3.82569152 -1.00606235 -2.08994187 -0.6249336 0 0 Z " fill="#186035" transform="translate(746,255)"/>
<path d="M0 0 C0.33 0 0.66 0 1 0 C1 13.2 1 26.4 1 40 C-0.485 40.495 -0.485 40.495 -2 41 C-3.68538601 42.99665314 -3.68538601 42.99665314 -5 45 C-5 44.01 -5 43.02 -5 42 C-7.31 42 -9.62 42 -12 42 C-12 41.67 -12 41.34 -12 41 C-9.36 41 -6.72 41 -4 41 C-4.99 37.04 -5.98 33.08 -7 29 C-6.34 29 -5.68 29 -5 29 C-4.34 29.66 -3.68 30.32 -3 31 C-2.34 30.67 -1.68 30.34 -1 30 C-0.67 20.1 -0.34 10.2 0 0 Z " fill="#135A30" transform="translate(529,523)"/>
<path d="M0 0 C0.66 0.33 1.32 0.66 2 1 C2.625 3.0625 2.625 3.0625 3 5 C3.66 4.01 4.32 3.02 5 2 C5.13277344 2.80824219 5.26554688 3.61648438 5.40234375 4.44921875 C5.57894531 5.51785156 5.75554688 6.58648438 5.9375 7.6875 C6.11152344 8.74324219 6.28554688 9.79898438 6.46484375 10.88671875 C6.93167121 13.60249604 7.44422616 16.30124235 8 19 C7.278125 18.814375 6.55625 18.62875 5.8125 18.4375 C2.87173027 17.98004693 0.85896942 18.26483643 -2 19 C-1.84660156 18.32582031 -1.69320312 17.65164063 -1.53515625 16.95703125 C-0.91516143 13.53122048 -0.6647426 10.16106553 -0.4375 6.6875 C-0.35371094 5.43324219 -0.26992188 4.17898438 -0.18359375 2.88671875 C-0.12300781 1.93410156 -0.06242188 0.98148438 0 0 Z " fill="#1A6236" transform="translate(564,538)"/>
<path d="M0 0 C6 0 6 0 7.875 1.125 C9.52854531 3.88090884 9.39365568 5.85075452 9 9 C7.875 10.875 7.875 10.875 6 12 C4.02 12 2.04 12 0 12 C0 8.04 0 4.08 0 0 Z " fill="#065123" transform="translate(613,466)"/>
<path d="M0 0 C4.75 1.875 4.75 1.875 7 3 C6.67 3.7425 6.34 4.485 6 5.25 C3.71018349 13.83681193 4.88980107 22.48384003 7 31 C5.02 30.34 3.04 29.68 1 29 C1 31.64 1 34.28 1 37 C0.67 37 0.34 37 0 37 C0 33.37 0 29.74 0 26 C1.32 26 2.64 26 4 26 C3.76990234 25.24976563 3.76990234 25.24976563 3.53515625 24.484375 C2.80542604 21.09672234 2.63643523 17.70038481 2.4375 14.25 C2.37272461 13.20392578 2.37272461 13.20392578 2.30664062 12.13671875 C2.20110404 10.42468078 2.1001009 8.71236439 2 7 C1.34 7 0.68 7 0 7 C0 4.69 0 2.38 0 0 Z " fill="#0B5529" transform="translate(934,463)"/>
<path d="M0 0 C0 0.66 0 1.32 0 2 C-2.31 2.33 -4.62 2.66 -7 3 C-7.33 4.65 -7.66 6.3 -8 8 C-13.66104589 7.50341703 -17.87674471 6.45489316 -23 4 C-23 3.67 -23 3.34 -23 3 C-19.91747911 2.49490361 -16.83386475 1.99682001 -13.75 1.5 C-12.87730469 1.35691406 -12.00460937 1.21382813 -11.10546875 1.06640625 C-10.26113281 0.93105469 -9.41679688 0.79570312 -8.546875 0.65625 C-7.77182617 0.53056641 -6.99677734 0.40488281 -6.19824219 0.27539062 C-4 0 -4 0 0 0 Z " fill="#1E623A" transform="translate(748,404)"/>
<path d="M0 0 C0.33 0 0.66 0 1 0 C1.1953125 6.0546875 1.1953125 6.0546875 1 8 C0.34 8.66 -0.32 9.32 -1 10 C-1.33 9.67 -1.66 9.34 -2 9 C-3.92478813 8.84193469 -5.8549921 8.748865 -7.78515625 8.68359375 C-8.95498047 8.64169922 -10.12480469 8.59980469 -11.33007812 8.55664062 C-13.17762695 8.49766602 -13.17762695 8.49766602 -15.0625 8.4375 C-16.29806641 8.39431641 -17.53363281 8.35113281 -18.80664062 8.30664062 C-21.87097335 8.20015802 -24.93539073 8.09814576 -28 8 C-28.33 7.34 -28.66 6.68 -29 6 C-19.43 6 -9.86 6 0 6 C0 4.02 0 2.04 0 0 Z " fill="#37714E" transform="translate(797,494)"/>
<path d="M0 0 C0 3.51716303 -0.82445585 4.37121748 -3 7 C-0.03 7.33 2.94 7.66 6 8 C6 8.33 6 8.66 6 9 C-3.57 9 -13.14 9 -23 9 C-23 8.67 -23 8.34 -23 8 C-21.92878906 7.93941406 -20.85757813 7.87882812 -19.75390625 7.81640625 C-18.35675609 7.73201463 -16.95962143 7.64736594 -15.5625 7.5625 C-14.50192383 7.50352539 -14.50192383 7.50352539 -13.41992188 7.44335938 C-9.91309581 7.52375562 -9.91309581 7.52375562 -7 6 C-8.32 5.34 -9.64 4.68 -11 4 C-5.555 2.02 -5.555 2.02 0 0 Z " fill="#155A31" transform="translate(790,449)"/>
<path d="M0 0 C2.31 0 4.62 0 7 0 C3.29909479 3.9252025 -0.54959656 6.94580156 -5 10 C-7.1519437 6.77208445 -7.20086443 5.71599191 -7 2 C-4.03 2.495 -4.03 2.495 -1 3 C-0.67 2.01 -0.34 1.02 0 0 Z " fill="#0C5628" transform="translate(859,358)"/>
<path d="M0 0 C8 0 8 0 10.5625 1.75 C12 4 12 4 11.75 6.25 C11.5025 6.8275 11.255 7.405 11 8 C11 7.34 11 6.68 11 6 C8.69 5.67 6.38 5.34 4 5 C4 4.01 4 3.02 4 2 C3.01 1.67 2.02 1.34 1 1 C1 9.25 1 17.5 1 26 C0.67 26 0.34 26 0 26 C0 17.42 0 8.84 0 0 Z " fill="#407C58" transform="translate(294,530)"/>
<path d="M0 0 C0.33 0 0.66 0 1 0 C1 2.31 1 4.62 1 7 C4.63 7 8.26 7 12 7 C12 17.89 12 28.78 12 40 C11.67 40 11.34 40 11 40 C11 29.44 11 18.88 11 8 C7.7 8.33 4.4 8.66 1 9 C0.67 10.65 0.34 12.3 0 14 C-0.33 14 -0.66 14 -1 14 C-1.08333357 9.1666528 -0.95261487 4.76307437 0 0 Z " fill="#1C693E" transform="translate(432,459)"/>
<path d="M0 0 C3.96 0 7.92 0 12 0 C12.99 2.97 13.98 5.94 15 9 C13.68 9 12.36 9 11 9 C10.67 8.67 10.34 8.34 10 8 C9.34 7.67 8.68 7.34 8 7 C8 5.68 8 4.36 8 3 C7.01 3 6.02 3 5 3 C5 2.34 5 1.68 5 1 C1.88214887 1.64644661 1.88214887 1.64644661 1 4 C0.34 4 -0.32 4 -1 4 C-0.67 2.68 -0.34 1.36 0 0 Z " fill="#0E582B" transform="translate(777,555)"/>
<path d="M0 0 C2.31 0 4.62 0 7 0 C7.33 1.65 7.66 3.3 8 5 C8.66 5 9.32 5 10 5 C10.33 6.32 10.66 7.64 11 9 C6.545 8.01 6.545 8.01 2 7 C1 3 1 3 2 1 C1.34 0.67 0.68 0.34 0 0 Z " fill="#085627" transform="translate(739,406)"/>
<path d="M0 0 C1.32 0.33 2.64 0.66 4 1 C3.01 1 2.02 1 1 1 C1 1.66 1 2.32 1 3 C4.63 3 8.26 3 12 3 C11.67 4.32 11.34 5.64 11 7 C7.37 7.33 3.74 7.66 0 8 C0 5.36 0 2.72 0 0 Z " fill="#025121" transform="translate(637,547)"/>
<path d="M0 0 C0 0.66 0 1.32 0 2 C-0.804375 2.3403125 -0.804375 2.3403125 -1.625 2.6875 C-7.47331631 5.87807173 -7.47331631 5.87807173 -10.828125 11.328125 C-11.31720561 13.54994834 -11.71487049 15.74354402 -12 18 C-12.33 18 -12.66 18 -13 18 C-13.36308044 12.89670273 -13.58277658 9.12536167 -11.1875 4.5 C-7.54783428 0.34038203 -5.37551956 -0.23891198 0 0 Z " fill="#296A43" transform="translate(826,465)"/>
<path d="M0 0 C3.63 0 7.26 0 11 0 C10.67 1.32 10.34 2.64 10 4 C9.01 3.34 8.02 2.68 7 2 C4.03 1.505 4.03 1.505 1 1 C1 11.56 1 22.12 1 33 C0.67 33 0.34 33 0 33 C0 22.11 0 11.22 0 0 Z " fill="#0C4E26" transform="translate(401,466)"/>
<path d="M0 0 C0 0.66 0 1.32 0 2 C-1.96875 3.69140625 -1.96875 3.69140625 -4.5 5.5625 C-6.01565385 6.68754553 -7.52005581 7.82837752 -9 9 C-9 9.33 -9 9.66 -9 10 C-6.03 10.33 -3.06 10.66 0 11 C0 11.33 0 11.66 0 12 C-5.28 12 -10.56 12 -16 12 C-12.7691952 8.7691952 -9.86252908 5.95399125 -6.3125 3.1875 C-5.54550781 2.58292969 -4.77851562 1.97835938 -3.98828125 1.35546875 C-2 0 -2 0 0 0 Z " fill="#D6E6D9" transform="translate(866,346)"/>
<path d="M0 0 C0.66 0 1.32 0 2 0 C3.125 4.75 3.125 4.75 2 7 C1.34 7 0.68 7 0 7 C0 8.98 0 10.96 0 13 C-0.99 13.33 -1.98 13.66 -3 14 C-3 13.34 -3 12.68 -3 12 C-5.31 12 -7.62 12 -10 12 C-10 11.67 -10 11.34 -10 11 C-7.03 11 -4.06 11 -1 11 C-1.66 8.03 -2.32 5.06 -3 2 C-2.01 2 -1.02 2 0 2 C0 1.34 0 0.68 0 0 Z " fill="#166035" transform="translate(803,553)"/>
<path d="M0 0 C1.98 0 3.96 0 6 0 C7.61949011 2.57213134 8.04408751 3.67669159 7.625 6.75 C7.41875 7.4925 7.2125 8.235 7 9 C6.01 9 5.02 9 4 9 C3.3309224 7.68872739 2.66480194 6.3759455 2 5.0625 C1.62875 4.33160156 1.2575 3.60070312 0.875 2.84765625 C0 1 0 1 0 0 Z " fill="#0D572A" transform="translate(631,352)"/>
<path d="M0 0 C2.475 0.99 2.475 0.99 5 2 C4.50886719 2.53109375 4.01773437 3.0621875 3.51171875 3.609375 C1.56990223 6.68015462 1.69508306 8.64921396 1.8125 12.25 C1.83957031 13.32765625 1.86664063 14.4053125 1.89453125 15.515625 C1.92933594 16.33546875 1.96414063 17.1553125 2 18 C1.01 18 0.02 18 -1 18 C-0.96519531 16.78763672 -0.96519531 16.78763672 -0.9296875 15.55078125 C-0.91164063 14.48214844 -0.89359375 13.41351563 -0.875 12.3125 C-0.85179687 11.25675781 -0.82859375 10.20101563 -0.8046875 9.11328125 C-1.00141271 5.97748141 -1.66942346 3.82354627 -3 1 C-2.01 1.33 -1.02 1.66 0 2 C0 1.34 0 0.68 0 0 Z " fill="#145C30" transform="translate(345,458)"/>
<path d="M0 0 C1.32 0.33 2.64 0.66 4 1 C4.125 6.75 4.125 6.75 3 9 C-1.29 8.67 -5.58 8.34 -10 8 C-10 7.67 -10 7.34 -10 7 C-7.03 7 -4.06 7 -1 7 C-0.67 4.69 -0.34 2.38 0 0 Z " fill="#DDECE3" transform="translate(369,458)"/>
<path d="M0 0 C2.625 0.375 2.625 0.375 5 1 C1.79509037 3.59037598 -1.55350453 5.37943156 -5.25 7.1875 C-6.32765625 7.71730469 -7.4053125 8.24710938 -8.515625 8.79296875 C-9.33546875 9.19128906 -10.1553125 9.58960938 -11 10 C-10.42655063 7.13275314 -10.1385485 6.1385485 -8 4 C-7.01 4 -6.02 4 -5 4 C-5 3.34 -5 2.68 -5 2 C-4.34 2.33 -3.68 2.66 -3 3 C-2.67 2.67 -2.34 2.34 -2 2 C-1.34 1.34 -0.68 0.68 0 0 Z " fill="#0F582A" transform="translate(622,224)"/>
<path d="M0 0 C0.66 0 1.32 0 2 0 C2.66 3.63 3.32 7.26 4 11 C2.02 11 0.04 11 -2 11 C-1.34 7.37 -0.68 3.74 0 0 Z " fill="#286942" transform="translate(505,536)"/>
<path d="M0 0 C-0.99 0.33 -1.98 0.66 -3 1 C-3 2.32 -3 3.64 -3 5 C-6.96 4.67 -10.92 4.34 -15 4 C-15 3.34 -15 2.68 -15 2 C-13.25364835 1.46706165 -11.50272348 0.94909337 -9.75 0.4375 C-8.77546875 0.14746094 -7.8009375 -0.14257812 -6.796875 -0.44140625 C-4.03756068 -0.99249836 -2.6087176 -0.93789609 0 0 Z " fill="#33704C" transform="translate(739,236)"/>
<path d="M0 0 C0.33 0 0.66 0 1 0 C1 2.64 1 5.28 1 8 C4.63 8 8.26 8 12 8 C12 8.66 12 9.32 12 10 C11.31292969 10.04898437 10.62585938 10.09796875 9.91796875 10.1484375 C9.01691406 10.22320312 8.11585938 10.29796875 7.1875 10.375 C6.29417969 10.44460938 5.40085937 10.51421875 4.48046875 10.5859375 C1.75601501 10.86645036 1.75601501 10.86645036 -1 13 C-1 9.98146205 -0.85049285 7.22918921 -0.5 4.25 C-0.4071875 3.45078125 -0.314375 2.6515625 -0.21875 1.828125 C-0.1465625 1.22484375 -0.074375 0.6215625 0 0 Z " fill="#1C5F37" transform="translate(377,458)"/>
<path d="M0 0 C0.33 0 0.66 0 1 0 C1 5.28 1 10.56 1 16 C-1.97 16 -4.94 16 -8 16 C-7.34 14.35 -6.68 12.7 -6 11 C-3 13 -3 13 -2 14 C-0.64908472 11.29816945 -0.66141942 8.88191794 -0.4375 5.875 C-0.35371094 4.77929688 -0.26992188 3.68359375 -0.18359375 2.5546875 C-0.12300781 1.71164063 -0.06242187 0.86859375 0 0 Z " fill="#276941" transform="translate(292,237)"/>
<path d="M0 0 C0.66 0 1.32 0 2 0 C3.19287411 3.87684087 4 6.91621923 4 11 C2.35 11 0.7 11 -1 11 C-0.67 7.37 -0.34 3.74 0 0 Z " fill="#22633D" transform="translate(430,535)"/>
<path d="M0 0 C0.99 0.33 1.98 0.66 3 1 C2.34 4.63 1.68 8.26 1 12 C0.67 12 0.34 12 0 12 C-0.144375 11.071875 -0.28875 10.14375 -0.4375 9.1875 C-0.92100111 5.99274889 -0.92100111 5.99274889 -2 3 C-5.63 3 -9.26 3 -13 3 C-13 2.67 -13 2.34 -13 2 C-12.22914063 1.93941406 -11.45828125 1.87882812 -10.6640625 1.81640625 C-9.15972656 1.69072266 -9.15972656 1.69072266 -7.625 1.5625 C-6.62726562 1.48128906 -5.62953125 1.40007812 -4.6015625 1.31640625 C-2.02072387 1.15034374 -2.02072387 1.15034374 0 0 Z " fill="#276943" transform="translate(545,464)"/>
<path d="M0 0 C2.875 -0.125 2.875 -0.125 6 0 C6.66 0.66 7.32 1.32 8 2 C7.625 4.125 7.625 4.125 7 6 C5 6 3 6 1 6 C0.67 4.02 0.34 2.04 0 0 Z " fill="#055221" transform="translate(613,466)"/>
<path d="M0 0 C2.97 0 5.94 0 9 0 C9 4 9 4 8 6 C5.69 5.34 3.38 4.68 1 4 C0.67 2.68 0.34 1.36 0 0 Z " fill="#00541F" transform="translate(358,467)"/>
<path d="M0 0 C1.64826111 2.96687001 2.44271087 5.65626525 3 9 C2.278125 8.814375 1.55625 8.62875 0.8125 8.4375 C-2.12826973 7.98004693 -4.14103058 8.26483643 -7 9 C-6.34 7.02 -5.68 5.04 -5 3 C-4.34 3 -3.68 3 -3 3 C-3 3.99 -3 4.98 -3 6 C-0.8614515 3.8614515 -0.57344937 2.86724686 0 0 Z " fill="#12592E" transform="translate(569,548)"/>
<path d="M0 0 C6.625 -0.125 6.625 -0.125 10 1 C10 1.99 10 2.98 10 4 C6.7 4.33 3.4 4.66 0 5 C0 3.35 0 1.7 0 0 Z " fill="#FAFBFA" transform="translate(494,458)"/>
<path d="M0 0 C0.66 0 1.32 0 2 0 C3.60725635 3.21451269 3.05748185 6.43612536 3 10 C1.68 10 0.36 10 -1 10 C-1.125 3.375 -1.125 3.375 0 0 Z " fill="#035022" transform="translate(782,536)"/>
<path d="M0 0 C0.33 0 0.66 0 1 0 C1.66 3.3 2.32 6.6 3 10 C1.02 9.34 -0.96 8.68 -3 8 C-3 10.64 -3 13.28 -3 16 C-3.33 16 -3.66 16 -4 16 C-4 12.37 -4 8.74 -4 5 C-2.68 5 -1.36 5 0 5 C0 3.35 0 1.7 0 0 Z " fill="#22673E" transform="translate(938,484)"/>
<path d="M0 0 C0.33 0.66 0.66 1.32 1 2 C-0.53805649 6.45226878 -1.76456303 9.67734102 -6 12 C-6.66 12 -7.32 12 -8 12 C-8 11.34 -8 10.68 -8 10 C-7.01 10 -6.02 10 -5 10 C-4.80664062 9.36191406 -4.61328125 8.72382813 -4.4140625 8.06640625 C-4.15367187 7.24011719 -3.89328125 6.41382813 -3.625 5.5625 C-3.36976563 4.73878906 -3.11453125 3.91507812 -2.8515625 3.06640625 C-2 1 -2 1 0 0 Z " fill="#E5F0E7" transform="translate(504,488)"/>
<path d="M0 0 C2 1.3125 2 1.3125 4 3 C4 3.99 4 4.98 4 6 C7.3 6 10.6 6 14 6 C14 6.33 14 6.66 14 7 C10.7 7 7.4 7 4 7 C3.67 7.66 3.34 8.32 3 9 C3 8.01 3 7.02 3 6 C1.02 6.99 1.02 6.99 -1 8 C-1.33 7.34 -1.66 6.68 -2 6 C-1.34 6 -0.68 6 0 6 C0 4.02 0 2.04 0 0 Z " fill="#2C6C45" transform="translate(408,558)"/>
<path d="M0 0 C2.64 0 5.28 0 8 0 C8.66 1.98 9.32 3.96 10 6 C9.34 6.66 8.68 7.32 8 8 C5.33333333 5.33333333 2.66666667 2.66666667 0 0 Z " fill="#155930" transform="translate(349,521)"/>
<path d="M0 0 C0.47050781 0.33773438 0.94101562 0.67546875 1.42578125 1.0234375 C2.35970703 1.69246094 2.35970703 1.69246094 3.3125 2.375 C4.23482422 3.03628906 4.23482422 3.03628906 5.17578125 3.7109375 C6.7652392 4.83410907 8.38062171 5.92041447 10 7 C8.02 7.66 6.04 8.32 4 9 C1.47740939 7.02579865 1.0070192 6.03254358 0.3125 2.8125 C0.209375 1.884375 0.10625 0.95625 0 0 Z " fill="#10592E" transform="translate(906,494)"/>
<path d="M0 0 C0.103125 0.639375 0.20625 1.27875 0.3125 1.9375 C0.539375 2.618125 0.76625 3.29875 1 4 C1.99 4.33 2.98 4.66 4 5 C3.34 6.32 2.68 7.64 2 9 C1.01 9 0.02 9 -1 9 C-2.1875 7.3125 -2.1875 7.3125 -3 5 C-1.625 2.25 -1.625 2.25 0 0 Z " fill="#0A572A" transform="translate(635,286)"/>
<path d="M0 0 C-3.59258142 2.89158993 -5.17748885 4.05306524 -9.875 3.75 C-10.90625 3.5025 -11.9375 3.255 -13 3 C-9.54666565 -0.45333435 -4.63654999 -1.85462 0 0 Z " fill="#2C6B47" transform="translate(737,387)"/>
<path d="M0 0 C0.350625 0.474375 0.70125 0.94875 1.0625 1.4375 C3.84163543 3.67873825 6.5144717 3.67117658 10 4 C9.34 4.66 8.68 5.32 8 6 C5.3984375 5.9765625 5.3984375 5.9765625 2.375 5.625 C1.37210937 5.51414062 0.36921875 5.40328125 -0.6640625 5.2890625 C-1.43492187 5.19367187 -2.20578125 5.09828125 -3 5 C-3 3.68 -3 2.36 -3 1 C-2.01 0.67 -1.02 0.34 0 0 Z " fill="#0D5329" transform="translate(429,517)"/>
<path d="M0 0 C1.14947895 3.55293493 1.0868937 4.79976669 -0.4375 8.3125 C-1.2109375 9.6428125 -1.2109375 9.6428125 -2 11 C-3.32 10.67 -4.64 10.34 -6 10 C-5.01 9.67 -4.02 9.34 -3 9 C-1.77479736 5.99152582 -1.77479736 5.99152582 -1 3 C-3.64 2.67 -6.28 2.34 -9 2 C-9 1.67 -9 1.34 -9 1 C-2.25 0 -2.25 0 0 0 Z " fill="#23663E" transform="translate(835,456)"/>
<path d="M0 0 C1.32 0.33 2.64 0.66 4 1 C4 2.98 4 4.96 4 7 C5.98 7 7.96 7 10 7 C10 7.33 10 7.66 10 8 C6.6875 8.25 6.6875 8.25 3 8 C1.0625 6.25 1.0625 6.25 0 4 C0 2.68 0 1.36 0 0 Z " fill="#175B33" transform="translate(648,484)"/>
<path d="M0 0 C0 3.33018015 -0.47896852 6.39848881 -1 9.6875 C-1.185625 10.86699219 -1.37125 12.04648437 -1.5625 13.26171875 C-1.706875 14.16535156 -1.85125 15.06898438 -2 16 C-2.33 16 -2.66 16 -3 16 C-3 13.03 -3 10.06 -3 7 C-3.99 7 -4.98 7 -6 7 C-6 5 -6 5 -4 3 C-2.67607028 1.98758315 -1.34400833 0.98560611 0 0 Z " fill="#1F673C" transform="translate(798,466)"/>
<path d="M0 0 C0.33 0 0.66 0 1 0 C1 2.31 1 4.62 1 7 C4.63 7 8.26 7 12 7 C12 7.33 12 7.66 12 8 C8.37 8.33 4.74 8.66 1 9 C0.67 10.65 0.34 12.3 0 14 C-0.33 14 -0.66 14 -1 14 C-1.08333357 9.1666528 -0.95261487 4.76307437 0 0 Z " fill="#3D7756" transform="translate(432,459)"/>
<path d="M0 0 C0.84062397 3.09773244 1.08935201 5.78332751 1 9 C0.01 9.495 0.01 9.495 -1 10 C-1.33 10.99 -1.66 11.98 -2 13 C-3 16 -3 16 -5 17 C-4.31063929 13.08878502 -3.21749819 9.44491404 -1.9375 5.6875 C-1.57527344 4.61886719 -1.21304688 3.55023438 -0.83984375 2.44921875 C-0.56269531 1.64097656 -0.28554688 0.83273437 0 0 Z " fill="#DDEDE3" transform="translate(789,348)"/>
<path d="M0 0 C3.63 0 7.26 0 11 0 C10.67 0.66 10.34 1.32 10 2 C7.69 2 5.38 2 3 2 C3 2.66 3 3.32 3 4 C1.68 3.67 0.36 3.34 -1 3 C-0.67 2.01 -0.34 1.02 0 0 Z " fill="#286943" transform="translate(885,500)"/>
<path d="M0 0 C2.35953094 2.35953094 2.49141413 3.77895617 3 7 C1.35 7.66 -0.3 8.32 -2 9 C-3 6 -3 6 -1.5625 2.8125 C-1.046875 1.884375 -0.53125 0.95625 0 0 Z " fill="#175E35" transform="translate(869,277)"/>
<path d="M0 0 C2 2 2 2 2.3125 4.5 C2.209375 5.325 2.10625 6.15 2 7 C-1 9 -1 9 -4 9 C-2.80100302 5.9168649 -1.52299523 2.93720508 0 0 Z " fill="#0D5A2C" transform="translate(549,349)"/>
<path d="M0 0 C6.36363636 -0.48951049 6.36363636 -0.48951049 9.4375 1.875 C11 4 11 4 11 6 C9.68 6 8.36 6 7 6 C6.67 4.35 6.34 2.7 6 1 C5.01 1.33 4.02 1.66 3 2 C2.01 1.34 1.02 0.68 0 0 Z " fill="#165C32" transform="translate(685,530)"/>
<path d="M0 0 C0.66 0 1.32 0 2 0 C2.33 0.66 2.66 1.32 3 2 C5.35599235 2.46751788 5.35599235 2.46751788 8.0625 2.625 C9.44115234 2.73714844 9.44115234 2.73714844 10.84765625 2.8515625 C11.55792969 2.90054687 12.26820313 2.94953125 13 3 C13 3.33 13 3.66 13 4 C11.60974609 4.07347656 11.60974609 4.07347656 10.19140625 4.1484375 C8.99386719 4.22320312 7.79632812 4.29796875 6.5625 4.375 C4.77005859 4.47941406 4.77005859 4.47941406 2.94140625 4.5859375 C1.97074219 4.72257812 1.00007812 4.85921875 0 5 C-0.33 5.66 -0.66 6.32 -1 7 C-0.67 4.69 -0.34 2.38 0 0 Z " fill="#2A6C44" transform="translate(837,497)"/>
<path d="M0 0 C0.66 0.66 1.32 1.32 2 2 C4.66242821 2.46290221 4.66242821 2.46290221 7.625 2.625 C9.12933594 2.73714844 9.12933594 2.73714844 10.6640625 2.8515625 C11.43492187 2.90054687 12.20578125 2.94953125 13 3 C13 3.33 13 3.66 13 4 C12.31292969 4.06058594 11.62585938 4.12117188 10.91796875 4.18359375 C9.56638672 4.30927734 9.56638672 4.30927734 8.1875 4.4375 C6.84751953 4.55931641 6.84751953 4.55931641 5.48046875 4.68359375 C2.87256441 4.93489767 2.87256441 4.93489767 0 6 C-0.66 5.67 -1.32 5.34 -2 5 C-1.34 3.35 -0.68 1.7 0 0 Z " fill="#2C7047" transform="translate(326,497)"/>
<path d="M0 0 C1.134375 0.020625 2.26875 0.04125 3.4375 0.0625 C-1.3125 4.9375 -1.3125 4.9375 -3.5625 6.0625 C-3.94468767 4.40635343 -4.27645102 2.73792976 -4.5625 1.0625 C-3.5625 0.0625 -3.5625 0.0625 0 0 Z " fill="#155B33" transform="translate(862.5625,357.9375)"/>
<path d="M0 0 C0.66 0 1.32 0 2 0 C2.33 0.99 2.66 1.98 3 3 C3.66 3.33 4.32 3.66 5 4 C5.33 3.34 5.66 2.68 6 2 C6 3.65 6 5.3 6 7 C6.66 7.33 7.32 7.66 8 8 C4.41087588 8 3.89142971 7.33563446 1.3125 5 C0.68988281 4.443125 0.06726563 3.88625 -0.57421875 3.3125 C-1.04472656 2.879375 -1.51523437 2.44625 -2 2 C-1.34 1.34 -0.68 0.68 0 0 Z " fill="#175D34" transform="translate(528,236)"/>
<path d="M0 0 C1.32 0.33 2.64 0.66 4 1 C3.67 3.97 3.34 6.94 3 10 C-0.3 10 -3.6 10 -7 10 C-7 9.67 -7 9.34 -7 9 C-4.03 9 -1.06 9 2 9 C1.34 6.03 0.68 3.06 0 0 Z " fill="#1E633A" transform="translate(448,555)"/>
<path d="M0 0 C0.99 0.33 1.98 0.66 3 1 C2.34 2.98 1.68 4.96 1 7 C-0.65 5.35 -2.3 3.7 -4 2 C-2.68 2 -1.36 2 0 2 C0 1.34 0 0.68 0 0 Z " fill="#10592E" transform="translate(972,457)"/>
<path d="M0 0 C0.66 0.33 1.32 0.66 2 1 C-0.31 4.63 -2.62 8.26 -5 12 C-6 9 -6 9 -5.0625 7 C-4.711875 6.34 -4.36125 5.68 -4 5 C-4 4.01 -4 3.02 -4 2 C-2.68 2 -1.36 2 0 2 C0 1.34 0 0.68 0 0 Z " fill="#175B33" transform="translate(591,250)"/>
<path d="M0 0 C4.875 4.625 4.875 4.625 6 8 C5.34 8 4.68 8 4 8 C3.67 7.34 3.34 6.68 3 6 C2.01 7.32 1.02 8.64 0 10 C0 6.7 0 3.4 0 0 Z " fill="#185C34" transform="translate(313,477)"/>
<path d="M0 0 C1.53690745 2.41040161 2.09752136 3.50082285 1.5390625 6.359375 C1.23742187 7.14828125 0.93578125 7.9371875 0.625 8.75 C0.32851563 9.54921875 0.03203125 10.3484375 -0.2734375 11.171875 C-0.51320313 11.77515625 -0.75296875 12.3784375 -1 13 C-2.30102931 8.67941758 -1.72449924 5.41944536 -1 1 C-0.67 0.67 -0.34 0.34 0 0 Z " fill="#0E562C" transform="translate(781,364)"/>
<path d="M0 0 C0.66 1.32 1.32 2.64 2 4 C0.6875 5.5 0.6875 5.5 -1 7 C-1.99 7 -2.98 7 -4 7 C-3.67 5.35 -3.34 3.7 -3 2 C-2.01 2 -1.02 2 0 2 C0 1.34 0 0.68 0 0 Z " fill="#115C2D" transform="translate(501,558)"/>
<path d="M0 0 C8.57142857 -0.28571429 8.57142857 -0.28571429 12 2 C8.25 3.125 8.25 3.125 6 2 C6 2.66 6 3.32 6 4 C5.01 3.67 4.02 3.34 3 3 C3.33 2.34 3.66 1.68 4 1 C2.68 0.67 1.36 0.34 0 0 Z " fill="#2A6D47" transform="translate(395,529)"/>
<path d="M0 0 C1.32 0 2.64 0 4 0 C5.42944945 2.35438733 6.08661261 3.48032433 5.625 6.25 C5.41875 6.8275 5.2125 7.405 5 8 C2.74754119 5.31158141 1.11786042 3.35358125 0 0 Z " fill="#115C30" transform="translate(857,467)"/>
<path d="M0 0 C0.99 0.33 1.98 0.66 3 1 C3 2.65 3 4.3 3 6 C0 6 0 6 -1.6875 4.5 C-2.120625 4.005 -2.55375 3.51 -3 3 C-2.01 2.01 -1.02 1.02 0 0 Z " fill="#0D572A" transform="translate(313,521)"/>
<path d="M0 0 C0.33 0.99 0.66 1.98 1 3 C-2.3111013 4.10370043 -4.24748949 3.92673641 -7.6875 3.5625 C-8.68136719 3.46066406 -9.67523437 3.35882813 -10.69921875 3.25390625 C-11.45847656 3.17011719 -12.21773437 3.08632813 -13 3 C-13 2.67 -13 2.34 -13 2 C-12.06027344 1.90912109 -12.06027344 1.90912109 -11.1015625 1.81640625 C-9.87566406 1.69072266 -9.87566406 1.69072266 -8.625 1.5625 C-7.81289063 1.48128906 -7.00078125 1.40007812 -6.1640625 1.31640625 C-3.85304959 0.97851447 -2.33455672 0 0 0 Z " fill="#11562E" transform="translate(666,499)"/>
<path d="M0 0 C5.28 0 10.56 0 16 0 C16 0.66 16 1.32 16 2 C11.05 2.33 6.1 2.66 1 3 C0.67 2.01 0.34 1.02 0 0 Z " fill="#185C37" transform="translate(556,500)"/>
<path d="M0 0 C0.33 0.99 0.66 1.98 1 3 C3.31 3 5.62 3 8 3 C8 2.34 8 1.68 8 1 C8.99 0.67 9.98 0.34 11 0 C11 1.32 11 2.64 11 4 C7.37 4 3.74 4 0 4 C0 2.68 0 1.36 0 0 Z " fill="#F0FBF4" transform="translate(444,496)"/>
<path d="M0 0 C2.31 0 4.62 0 7 0 C5.35 1.65 3.7 3.3 2 5 C2 4.34 2 3.68 2 3 C1.01 2.67 0.02 2.34 -1 2 C-0.67 1.34 -0.34 0.68 0 0 Z " fill="#115A2D" transform="translate(852,376)"/>
<path d="M0 0 C0.33 0.66 0.66 1.32 1 2 C1.99 2 2.98 2 4 2 C4 3.65 4 5.3 4 7 C3.34 7 2.68 7 2 7 C2 6.34 2 5.68 2 5 C1.01 4.67 0.02 4.34 -1 4 C-0.67 2.68 -0.34 1.36 0 0 Z " fill="#0F5C2E" transform="translate(475,560)"/>
<path d="M0 0 C-1.1875 1.5625 -1.1875 1.5625 -3 3 C-5.6875 2.6875 -5.6875 2.6875 -8 2 C-8 1.34 -8 0.68 -8 0 C-4.71303767 -0.79953138 -3.28976808 -1.09658936 0 0 Z " fill="#0E5A2F" transform="translate(694,553)"/>
<path d="M0 0 C3.63 0 7.26 0 11 0 C10.34 1.32 9.68 2.64 9 4 C8.01 3.34 7.02 2.68 6 2 C4.0103005 1.60986284 2.00980131 1.26797351 0 1 C0 0.67 0 0.34 0 0 Z " fill="#377651" transform="translate(521,500)"/>
<path d="M0 0 C1.08073852 3.24221555 1.21676408 5.60402937 1 9 C0.34 9.66 -0.32 10.32 -1 11 C-1.66 10.67 -2.32 10.34 -3 10 C-2.01 6.7 -1.02 3.4 0 0 Z " fill="#23633C" transform="translate(583,484)"/>
<path d="M0 0 C0.33 0 0.66 0 1 0 C1.25 2.8125 1.25 2.8125 1 6 C-1 7.875 -1 7.875 -3 9 C-2.25 2.25 -2.25 2.25 0 0 Z " fill="#2B6C42" transform="translate(621,469)"/>
<path d="M0 0 C0.66 0.33 1.32 0.66 2 1 C1.25 2.9375 1.25 2.9375 0 5 C-1.9375 5.625 -1.9375 5.625 -4 6 C-4.99 6.66 -5.98 7.32 -7 8 C-5.50902342 4.2047869 -3.24299151 2.38957269 0 0 Z " fill="#DEEBE2" transform="translate(646,458)"/>
<path d="M0 0 C0.99 0.33 1.98 0.66 3 1 C4.1577506 4.47325181 4.06866652 7.36067448 4 11 C2.03698408 7.49461443 1.04097612 3.86648272 0 0 Z " fill="#155B30" transform="translate(948,345)"/>
<path d="M0 0 C0.66 0.33 1.32 0.66 2 1 C0.515 4.465 0.515 4.465 -1 8 C-1.66 7.34 -2.32 6.68 -3 6 C-2.625 3.875 -2.625 3.875 -2 2 C-1.34 2 -0.68 2 0 2 C0 1.34 0 0.68 0 0 Z " fill="#0C572B" transform="translate(413,553)"/>
<path d="M0 0 C1.65 0 3.3 0 5 0 C4.01 1.98 3.02 3.96 2 6 C1.34 5.67 0.68 5.34 0 5 C0 3.35 0 1.7 0 0 Z " fill="#00521E" transform="translate(542,531)"/>
<path d="M0 0 C1.5 1.1875 1.5 1.1875 3 3 C3.1875 5.6875 3.1875 5.6875 3 8 C0.47411298 5.63707344 -0.88820837 4.33537489 -2 1 C-1.34 0.67 -0.68 0.34 0 0 Z " fill="#095728" transform="translate(325,472)"/>
<path d="M0 0 C1.98 0 3.96 0 6 0 C5.67 2.31 5.34 4.62 5 7 C3.5 5.625 3.5 5.625 2 4 C2 3.34 2 2.68 2 2 C1.34 2 0.68 2 0 2 C0 1.34 0 0.68 0 0 Z " fill="#175F34" transform="translate(632,467)"/>
<path d="M0 0 C3.63 0 7.26 0 11 0 C10.67 1.32 10.34 2.64 10 4 C9.01 3.34 8.02 2.68 7 2 C4.67612053 1.60612212 2.34206251 1.26513915 0 1 C0 0.67 0 0.34 0 0 Z " fill="#2C7047" transform="translate(401,466)"/>
<path d="M0 0 C3.875 4.75 3.875 4.75 5 7 C3.35 7.33 1.7 7.66 0 8 C0 5.36 0 2.72 0 0 Z " fill="#145A31" transform="translate(589,391)"/>
<path d="M0 0 C1.98 0 3.96 0 6 0 C4.68 1.65 3.36 3.3 2 5 C1.34 4.34 0.68 3.68 0 3 C0 2.01 0 1.02 0 0 Z " fill="#0E572B" transform="translate(570,524)"/>
<path d="M0 0 C0.66 0 1.32 0 2 0 C1.45276317 3.37462715 0.9451 5.08235 -1 8 C-1.625 5.6875 -1.625 5.6875 -2 3 C-1.34 2.01 -0.68 1.02 0 0 Z " fill="#21633B" transform="translate(765,413)"/>
<path d="M0 0 C0.33 0 0.66 0 1 0 C0.25 7.75 0.25 7.75 -2 10 C-2.25 3.375 -2.25 3.375 0 0 Z " fill="#0D5A2C" transform="translate(807,291)"/>
<path d="M0 0 C0.66 0 1.32 0 2 0 C2.33 1.32 2.66 2.64 3 4 C1.35 5.32 -0.3 6.64 -2 8 C-1.33333333 5.33333333 -0.66666667 2.66666667 0 0 Z " fill="#175F36" transform="translate(595,242)"/>
<path d="M0 0 C0.66 0 1.32 0 2 0 C2.33 1.65 2.66 3.3 3 5 C2.01 5 1.02 5 0 5 C-0.33 5.66 -0.66 6.32 -1 7 C-0.67 4.69 -0.34 2.38 0 0 Z " fill="#306B47" transform="translate(782,536)"/>
<path d="M0 0 C0.66 0.33 1.32 0.66 2 1 C1.67 2.32 1.34 3.64 1 5 C0.01 5 -0.98 5 -2 5 C-2.33 5.99 -2.66 6.98 -3 8 C-2.25 2.25 -2.25 2.25 0 0 Z " fill="#286841" transform="translate(584,530)"/>
<path d="M0 0 C1.32 1.32 2.64 2.64 4 4 C3.67 4.66 3.34 5.32 3 6 C2.01 6.33 1.02 6.66 0 7 C0 4.69 0 2.38 0 0 Z " fill="#1B5E36" transform="translate(851,477)"/>
<path d="M0 0 C0.53625 0.226875 1.0725 0.45375 1.625 0.6875 C-3.79038462 3.76442308 -3.79038462 3.76442308 -6.75 3.375 C-7.554375 3.0346875 -7.554375 3.0346875 -8.375 2.6875 C-2.95961538 -0.38942308 -2.95961538 -0.38942308 0 0 Z " fill="#1E5F3B" transform="translate(737.375,235.3125)"/>
</svg>
